<?xml version="1.0" encoding="UTF-8" standalone="no"?>
<!-- Created with Inkscape (http://www.inkscape.org/) -->

<svg
   xmlns:ns0="http://www.iki.fi/pav/software/textext/"
   xmlns:dc="http://purl.org/dc/elements/1.1/"
   xmlns:cc="http://creativecommons.org/ns#"
   xmlns:rdf="http://www.w3.org/1999/02/22-rdf-syntax-ns#"
   xmlns:svg="http://www.w3.org/2000/svg"
   xmlns="http://www.w3.org/2000/svg"
   xmlns:sodipodi="http://sodipodi.sourceforge.net/DTD/sodipodi-0.dtd"
   xmlns:inkscape="http://www.inkscape.org/namespaces/inkscape"
   width="203.79047mm"
   height="124.33881mm"
   viewBox="0 0 722.09219 440.5706"
   id="svg10413"
   version="1.1"
   inkscape:version="0.92.3 (2405546, 2018-03-11)"
   sodipodi:docname="exp_model.svg"
   inkscape:export-filename="/home/varao/git/MJP_Boqian/tex_file/jcgs/figs/exp_model.svg.png"
   inkscape:export-xdpi="96"
   inkscape:export-ydpi="96">
  <sodipodi:namedview
     id="base"
     pagecolor="#ffffff"
     bordercolor="#666666"
     borderopacity="1.0"
     inkscape:pageopacity="0.0"
     inkscape:pageshadow="2"
     inkscape:zoom="0.35"
     inkscape:cx="67.487447"
     inkscape:cy="-281.64369"
     inkscape:document-units="px"
     inkscape:current-layer="layer1"
     showgrid="false"
     inkscape:window-width="1920"
     inkscape:window-height="1055"
     inkscape:window-x="0"
     inkscape:window-y="25"
     inkscape:window-maximized="0"
     fit-margin-top="0"
     fit-margin-left="0"
     fit-margin-right="0"
     fit-margin-bottom="0" />
  <defs
     id="defs10415">
    <marker
       inkscape:stockid="Arrow1Mend"
       orient="auto"
       refY="0"
       refX="0"
       id="marker11173"
       style="overflow:visible"
       inkscape:isstock="true">
      <path
         inkscape:connector-curvature="0"
         id="path11175"
         d="M 0,0 5,-5 -12.5,0 5,5 0,0 Z"
         style="fill:#000000;fill-opacity:1;fill-rule:evenodd;stroke:#000000;stroke-width:1pt;stroke-opacity:1"
         transform="matrix(-0.4,0,0,-0.4,-4,0)" />
    </marker>
    <marker
       inkscape:stockid="Arrow1Mstart"
       orient="auto"
       refY="0"
       refX="0"
       id="marker11115"
       style="overflow:visible"
       inkscape:isstock="true">
      <path
         inkscape:connector-curvature="0"
         id="path11117"
         d="M 0,0 5,-5 -12.5,0 5,5 0,0 Z"
         style="fill:#000000;fill-opacity:1;fill-rule:evenodd;stroke:#000000;stroke-width:1pt;stroke-opacity:1"
         transform="matrix(0.4,0,0,0.4,4,0)" />
    </marker>
    <marker
       inkscape:isstock="true"
       style="overflow:visible"
       id="marker11061"
       refX="0"
       refY="0"
       orient="auto"
       inkscape:stockid="Arrow1Mend">
      <path
         inkscape:connector-curvature="0"
         transform="matrix(-0.4,0,0,-0.4,-4,0)"
         style="fill:#000000;fill-opacity:1;fill-rule:evenodd;stroke:#000000;stroke-width:1pt;stroke-opacity:1"
         d="M 0,0 5,-5 -12.5,0 5,5 0,0 Z"
         id="path11063" />
    </marker>
    <marker
       inkscape:collect="always"
       inkscape:isstock="true"
       style="overflow:visible"
       id="marker11027"
       refX="0"
       refY="0"
       orient="auto"
       inkscape:stockid="Arrow1Mstart">
      <path
         inkscape:connector-curvature="0"
         transform="matrix(0.4,0,0,0.4,4,0)"
         style="fill:#000000;fill-opacity:1;fill-rule:evenodd;stroke:#000000;stroke-width:1pt;stroke-opacity:1"
         d="M 0,0 5,-5 -12.5,0 5,5 0,0 Z"
         id="path11029" />
    </marker>
    <marker
       inkscape:collect="always"
       inkscape:isstock="true"
       style="overflow:visible"
       id="Arrow1Mend"
       refX="0"
       refY="0"
       orient="auto"
       inkscape:stockid="Arrow1Mend">
      <path
         inkscape:connector-curvature="0"
         transform="matrix(-0.4,0,0,-0.4,-4,0)"
         style="fill:#000000;fill-opacity:1;fill-rule:evenodd;stroke:#000000;stroke-width:1pt;stroke-opacity:1"
         d="M 0,0 5,-5 -12.5,0 5,5 0,0 Z"
         id="path4214" />
    </marker>
    <marker
       inkscape:isstock="true"
       style="overflow:visible"
       id="Arrow1Mstart"
       refX="0"
       refY="0"
       orient="auto"
       inkscape:stockid="Arrow1Mstart">
      <path
         inkscape:connector-curvature="0"
         transform="matrix(0.4,0,0,0.4,4,0)"
         style="fill:#000000;fill-opacity:1;fill-rule:evenodd;stroke:#000000;stroke-width:1pt;stroke-opacity:1"
         d="M 0,0 5,-5 -12.5,0 5,5 0,0 Z"
         id="path4211" />
    </marker>
  </defs>
  <metadata
     id="metadata10418">
    <rdf:RDF>
      <cc:Work
         rdf:about="">
        <dc:format>image/svg+xml</dc:format>
        <dc:type
           rdf:resource="http://purl.org/dc/dcmitype/StillImage" />
        <dc:title />
      </cc:Work>
    </rdf:RDF>
  </metadata>
  <g
     transform="translate(1113.916,189.85208)"
     id="layer1"
     inkscape:groupmode="layer"
     inkscape:label="Layer 1">
    <ellipse
       ry="57.142857"
       rx="57.14286"
       cy="118.93363"
       cx="-940.85712"
       id="path10965"
       style="opacity:0.98000004;fill:none;fill-opacity:1;fill-rule:nonzero;stroke:#000000;stroke-width:5;stroke-linecap:butt;stroke-linejoin:miter;stroke-miterlimit:4;stroke-dasharray:none;stroke-dashoffset:0;stroke-opacity:1" />
    <path
       inkscape:connector-curvature="0"
       id="path10971"
       d="m -828.57143,-56.209224 -60,94.285714"
       style="fill:none;fill-rule:evenodd;stroke:#000000;stroke-width:5;stroke-linecap:butt;stroke-linejoin:miter;stroke-miterlimit:4;stroke-dasharray:none;stroke-opacity:1;marker-start:url(#Arrow1Mstart);marker-end:url(#Arrow1Mend)" />
    <path
       inkscape:connector-curvature="0"
       id="path11025"
       d="m -725.71429,-47.637795 54.28572,82.857143"
       style="fill:none;fill-rule:evenodd;stroke:#000000;stroke-width:5;stroke-linecap:butt;stroke-linejoin:miter;stroke-miterlimit:4;stroke-dasharray:none;stroke-opacity:1;marker-start:url(#marker11027);marker-end:url(#marker11061)" />
    <path
       inkscape:connector-curvature="0"
       id="path11107"
       d="m -851.42857,123.79078 134.28571,2.85714"
       style="fill:none;fill-rule:evenodd;stroke:#000000;stroke-width:5;stroke-linecap:butt;stroke-linejoin:miter;stroke-miterlimit:4;stroke-dasharray:none;stroke-opacity:1;marker-start:url(#marker11115);marker-end:url(#marker11173)" />
    <g
       transform="matrix(1.4797157,0,0,1.3172563,-1230.4467,-566.28173)"
       id="g11585">
      <g
         style="font-style:normal;font-variant:normal;font-weight:normal;font-stretch:normal;letter-spacing:normal;word-spacing:normal;text-anchor:start;fill:none;fill-opacity:1;fill-rule:evenodd;stroke:#000000;stroke-width:0.71626824;stroke-linecap:butt;stroke-linejoin:miter;stroke-miterlimit:10.43299961;stroke-dasharray:none;stroke-dashoffset:0;stroke-opacity:1"
         id="g11587"
         transform="matrix(1.0629921,0,0,-1.0629921,-186.02362,789.27165)"
         xml:space="preserve"
         stroke-miterlimit="10.433"
         font-style="normal"
         font-variant="normal"
         font-weight="normal"
         font-stretch="normal"
         font-size-adjust="none"
         letter-spacing="normal"
         word-spacing="normal"><path
           style="fill:#000000;stroke-width:0"
           inkscape:connector-curvature="0"
           d="m 478.44,422.14 v 0.74 l -0.01,0.75 -0.02,0.75 -0.04,0.74 -0.04,0.75 -0.06,0.74 -0.08,0.74 -0.09,0.73 -0.12,0.73 -0.14,0.73 -0.16,0.72 -0.19,0.72 -0.21,0.72 -0.25,0.7 -0.28,0.7 -0.15,0.35 -0.16,0.34 c -2.28,4.8 -6.37,5.6 -8.47,5.6 -2.98,0 -6.62,-1.3 -8.67,-5.94 -1.59,-3.44 -1.84,-7.33 -1.84,-11.31 0,-3.74 0.2,-8.22 2.25,-12 2.14,-4.03 5.78,-5.03 8.22,-5.03 v 1.09 c -1.94,0 -4.89,1.25 -5.79,6.03 -0.54,2.98 -0.54,7.56 -0.54,10.52 0,3.18 0,6.46 0.4,9.15 0.94,5.94 4.68,6.38 5.93,6.38 1.64,0 4.93,-0.89 5.87,-5.83 0.5,-2.78 0.5,-6.58 0.5,-9.7 0,-3.75 0,-7.13 -0.55,-10.32 -0.75,-4.73 -3.59,-6.23 -5.82,-6.23 v 0 -1.09 c 2.68,0 6.46,1.04 8.67,5.78 1.59,3.43 1.84,7.31 1.84,11.25 z"
           id="path11589" /></g>    </g>
    <g
       transform="matrix(1.4314365,0,0,1.1337638,-1385.8294,-270.10416)"
       id="g11709">
      <g
         style="font-style:normal;font-variant:normal;font-weight:normal;font-stretch:normal;letter-spacing:normal;word-spacing:normal;text-anchor:start;fill:none;fill-opacity:1;fill-rule:evenodd;stroke:#000000;stroke-width:0.78496927;stroke-linecap:butt;stroke-linejoin:miter;stroke-miterlimit:10.43299961;stroke-dasharray:none;stroke-dashoffset:0;stroke-opacity:1"
         word-spacing="normal"
         letter-spacing="normal"
         font-size-adjust="none"
         font-stretch="normal"
         font-weight="normal"
         font-variant="normal"
         font-style="normal"
         stroke-miterlimit="10.433"
         xml:space="preserve"
         transform="matrix(1.0629921,0,0,-1.0629921,-186.02362,789.27165)"
         id="g11711"><path
           style="fill:#000000;stroke-width:0"
           inkscape:connector-curvature="0"
           id="path11713"
           d="m 470.16,438.09 0,0.05 0,0.06 0,0.05 0,0.05 0,0.05 0,0.05 0,0.04 0,0.05 0,0.04 0,0.04 -0.01,0.04 0,0.04 0,0.04 0,0.03 0,0.04 -0.01,0.03 -0.01,0.07 0,0.06 -0.02,0.05 -0.01,0.05 -0.02,0.05 -0.02,0.04 -0.02,0.04 -0.02,0.03 -0.03,0.03 -0.03,0.03 -0.04,0.03 -0.04,0.02 -0.04,0.02 -0.03,0.01 -0.02,0.01 -0.03,0 -0.02,0.01 -0.03,0.01 -0.03,0 -0.03,0.01 -0.03,0 -0.04,0.01 -0.03,0 -0.04,0 -0.03,0.01 -0.04,0 -0.04,0 -0.05,0 -0.04,0 -0.04,0 -0.05,0.01 -0.05,0 -0.05,0 -0.05,0 -0.05,0 c -3.09,-3.19 -7.47,-3.19 -9.06,-3.19 l 0,-1.55 c 1,0 3.93,0 6.51,1.3 l 0,-25.81 c 0,-1.8 -0.14,-2.39 -4.62,-2.39 l -1.6,0 0,-1.55 c 1.75,0.16 6.08,0.16 8.07,0.16 2,0 6.32,0 8.07,-0.16 l 0,1.55 -1.59,0 c -4.48,0 -4.64,0.54 -4.64,2.39 z" /></g>    </g>
    <g
       transform="matrix(1.4189141,0,0,1.1337638,-1059.4849,-267.56845)"
       id="g11839">
      <g
         style="font-style:normal;font-variant:normal;font-weight:normal;font-stretch:normal;letter-spacing:normal;word-spacing:normal;text-anchor:start;fill:none;fill-opacity:1;fill-rule:evenodd;stroke:#000000;stroke-width:0.78842545;stroke-linecap:butt;stroke-linejoin:miter;stroke-miterlimit:10.43299961;stroke-dasharray:none;stroke-dashoffset:0;stroke-opacity:1"
         id="g11841"
         transform="matrix(1.0629921,0,0,-1.0629921,-186.02362,789.27165)"
         xml:space="preserve"
         stroke-miterlimit="10.433"
         font-style="normal"
         font-variant="normal"
         font-weight="normal"
         font-stretch="normal"
         font-size-adjust="none"
         letter-spacing="normal"
         word-spacing="normal"><path
           style="fill:#000000;stroke-width:0"
           inkscape:connector-curvature="0"
           d="m 461.85,410.04 5.28,5.13 c 7.76,6.87 10.76,9.56 10.76,14.54 0,5.69 -4.48,9.68 -10.56,9.68 -5.64,0 -9.33,-4.6 -9.33,-9.03 0,-2.79 2.5,-2.79 2.64,-2.79 0.86,0 2.6,0.6 2.6,2.64 0,1.3 -0.89,2.6 -2.64,2.6 -0.39,0 -0.5,0 -0.64,-0.05 1.14,3.24 3.83,5.08 6.72,5.08 4.53,0 6.68,-4.05 6.68,-8.13 0,-3.98 -2.5,-7.92 -5.23,-11.01 l -9.56,-10.66 C 458,407.5 458,407.4 458,406.2 h 18.49 l 1.4,8.67 h -1.25 c -0.25,-1.5 -0.59,-3.69 -1.09,-4.44 -0.36,-0.39 -3.64,-0.39 -4.73,-0.39 z"
           id="path11843" /></g>    </g>
    <g
       ns0:preamble=""
       ns0:text="$\\alpha \\exp(-\\beta)$"
       word-spacing="normal"
       letter-spacing="normal"
       font-size-adjust="none"
       font-stretch="normal"
       font-weight="normal"
       font-variant="normal"
       font-style="normal"
       stroke-miterlimit="10.433"
       xml:space="preserve"
       transform="matrix(5,0,0,-5,-2208.5714,3270)"
       id="g4296"
       style="font-style:normal;font-variant:normal;font-weight:normal;font-stretch:normal;letter-spacing:normal;word-spacing:normal;text-anchor:start;fill:none;fill-opacity:1;fill-rule:evenodd;stroke:#000000;stroke-linecap:butt;stroke-linejoin:miter;stroke-miterlimit:10.43299961;stroke-dasharray:none;stroke-dashoffset:0;stroke-opacity:1"><path
         id="path4298"
         d="m 228.19,659.58 0,0.07 0,0.07 -0.01,0.07 0,0.07 -0.01,0.13 -0.02,0.12 -0.02,0.12 -0.03,0.12 -0.03,0.1 -0.04,0.11 -0.04,0.09 -0.04,0.1 -0.04,0.08 -0.05,0.08 -0.06,0.08 -0.05,0.07 -0.06,0.07 -0.06,0.06 -0.06,0.05 -0.06,0.06 -0.07,0.05 -0.07,0.04 -0.06,0.04 -0.07,0.04 -0.07,0.03 -0.08,0.03 -0.07,0.02 -0.07,0.02 -0.07,0.02 -0.07,0.01 -0.08,0.01 -0.07,0.01 -0.07,0 -0.07,0.01 c -1.36,0 -2.68,-1.42 -2.68,-2.83 0,-0.92 0.6,-1.67 1.62,-1.67 l 0.02,0.21 c -0.6,0 -0.9,0.45 -0.9,1.09 0,0.48 0.26,1.56 0.58,2.06 0.47,0.73 1,0.92 1.35,0.92 0.99,0 0.99,-1.3 0.99,-2.08 0,-0.37 0,-0.94 0.02,-1.11 l 0,0 c -0.88,-0.77 -1.64,-0.88 -2.04,-0.88 l -0.02,-0.21 c 0.63,0 1.34,0.22 2.1,0.83 0.13,-0.53 0.46,-0.83 0.91,-0.83 0.53,0 0.84,0.54 0.84,0.7 0,0.07 -0.06,0.1 -0.12,0.1 -0.07,0 -0.1,-0.03 -0.13,-0.1 -0.18,-0.49 -0.54,-0.49 -0.56,-0.49 -0.31,0 -0.31,0.78 -0.31,1.02 0,0.21 0,0.23 0.1,0.35 0.94,1.17 1.14,2.32 1.14,2.33 0,0.02 0,0.1 -0.11,0.1 -0.1,0 -0.1,-0.03 -0.15,-0.21 -0.18,-0.63 -0.51,-1.38 -0.98,-1.97 z"
         inkscape:connector-curvature="0"
         style="fill:#000000;stroke-width:0" /><path
         id="path4300"
         d="m 232.61,659.53 0.01,0.21 c 0.06,1.48 0.9,1.73 1.24,1.73 1.02,0 1.12,-1.34 1.12,-1.73 l -2.36,0 -0.01,-0.21 2.78,0 c 0.22,0 0.25,0 0.25,0.21 0,0.98 -0.54,1.94 -1.78,1.94 -1.16,0 -2.08,-1.02 -2.08,-2.26 0,-1.33 1.05,-2.29 2.2,-2.29 1.21,0 1.66,1.1 1.66,1.29 0,0.1 -0.08,0.12 -0.13,0.12 -0.09,0 -0.11,-0.06 -0.13,-0.14 -0.35,-1.03 -1.24,-1.03 -1.34,-1.03 -0.5,0 -0.9,0.3 -1.13,0.67 -0.3,0.48 -0.3,1.13 -0.3,1.49 z"
         inkscape:connector-curvature="0"
         style="fill:#000000;stroke-width:0" /><path
         id="path4302"
         d="m 238.79,659.57 0.06,0.07 0.06,0.08 0.06,0.07 0.06,0.08 0.12,0.15 0.06,0.08 0.06,0.08 0.06,0.07 0.06,0.07 0.06,0.07 0.06,0.07 0.03,0.03 0.02,0.03 0.03,0.04 0.02,0.03 0.03,0.02 0.02,0.03 0.03,0.03 0.02,0.02 c 0.31,0.36 0.72,0.51 1.19,0.52 l 0,0.31 c -0.26,-0.02 -0.56,-0.03 -0.82,-0.03 -0.3,0 -0.83,0.02 -0.96,0.03 l 0,-0.31 c 0.21,-0.02 0.29,-0.15 0.29,-0.31 0,-0.16 -0.1,-0.29 -0.15,-0.35 l -0.62,-0.77 -0.77,1 c -0.1,0.1 -0.1,0.12 -0.1,0.18 0,0.15 0.16,0.24 0.35,0.25 l 0,0.31 c -0.25,-0.01 -0.91,-0.03 -1.07,-0.03 -0.21,0 -0.68,0.01 -0.95,0.03 l 0,-0.31 c 0.7,0 0.71,-0.01 1.18,-0.61 l 0.98,-1.28 -0.93,-1.18 c -0.48,-0.58 -1.07,-0.6 -1.28,-0.6 l 0,-0.31 c 0.26,0.03 0.57,0.04 0.83,0.04 0.29,0 0.71,-0.03 0.94,-0.04 l 0,0.31 c -0.21,0.03 -0.28,0.16 -0.28,0.31 0,0.22 0.28,0.55 0.89,1.26 l 0.76,-0.99 c 0.08,-0.11 0.21,-0.27 0.21,-0.33 0,-0.09 -0.09,-0.24 -0.36,-0.25 l 0,-0.31 c 0.3,0.01 0.86,0.04 1.08,0.04 0.27,0 0.66,-0.01 0.96,-0.04 l 0,0.31 c -0.54,0 -0.72,0.02 -0.95,0.31 z"
         inkscape:connector-curvature="0"
         style="fill:#000000;stroke-width:0" /><path
         id="path4304"
         d="m 242.9,660.97 0,0.66 -1.43,-0.11 0,-0.31 c 0.71,0 0.78,-0.06 0.78,-0.5 l 0,-4.65 c 0,-0.44 -0.11,-0.44 -0.78,-0.44 l 0,-0.31 c 0.34,0.01 0.85,0.03 1.12,0.03 0.26,0 0.77,-0.02 1.12,-0.03 l 0,0.31 c -0.67,0 -0.78,0 -0.78,0.44 l 0,1.67 0,0.09 0.14,0.13 c -0.14,0.21 -0.14,0.22 -0.14,0.42 l 0,0 0,2.21 c 0.29,0.51 0.78,0.8 1.29,0.8 0.73,0 1.34,-0.88 1.34,-2 0,-1.2 -0.7,-2.04 -1.44,-2.04 -0.4,0 -0.78,0.2 -1.05,0.61 l -0.14,-0.13 c 0.05,-0.16 0.47,-0.69 1.23,-0.69 1.19,0 2.22,0.97 2.22,2.25 0,1.26 -0.96,2.25 -2.08,2.25 -0.78,0 -1.2,-0.44 -1.4,-0.66 z"
         inkscape:connector-curvature="0"
         style="fill:#000000;stroke-width:0" /><path
         id="path4306"
         d="m 250.02,654.85 0,0.01 0,0 0,0 0,0.01 0,0 0,0 0,0.01 0,0 0,0 0,0.01 -0.01,0 0,0.01 0,0 -0.01,0.01 0,0 -0.01,0.01 0,0.01 -0.01,0 0,0.01 0,0 -0.01,0.01 0,0 0,0 -0.01,0.01 0,0 -0.01,0.01 0,0 -0.01,0.01 0,0 -0.01,0.01 0,0 -0.01,0.01 0,0.01 -0.01,0 -0.01,0.01 0,0.01 -0.01,0 -0.01,0.01 0,0.01 -0.01,0 -0.01,0.01 -0.01,0.01 c -1.24,1.25 -1.56,3.13 -1.56,4.65 0,1.73 0.38,3.45 1.61,4.7 0.12,0.12 0.12,0.14 0.12,0.17 0,0.07 -0.03,0.09 -0.09,0.09 -0.11,0 -1,-0.67 -1.59,-1.93 -0.51,-1.09 -0.63,-2.2 -0.63,-3.03 0,-0.78 0.11,-1.98 0.66,-3.1 0.6,-1.22 1.45,-1.87 1.56,-1.87 0.06,0 0.09,0.03 0.09,0.1 z"
         inkscape:connector-curvature="0"
         style="fill:#000000;stroke-width:0" /><path
         id="path4308"
         d="m 257.17,659.52 0.03,0 0.03,0 0.03,0 0.02,0 0.02,0 0.01,0 0.02,0.01 0.01,0 0.01,0 0.02,0 0.01,0.01 0.02,0 0.01,0 0.01,0.01 0.01,0.01 0.01,0 0.01,0.01 0.01,0.01 0.01,0 0.01,0.01 0.01,0.01 0,0.01 0.01,0 0,0.01 0,0.01 0,0 0.01,0.01 0,0.01 0,0 0,0.01 0,0.01 0.01,0.01 0,0 0,0.01 0,0.01 0,0.01 0,0.01 c 0,0.2 -0.18,0.2 -0.35,0.2 l -5.4,0 c -0.17,0 -0.34,0 -0.34,-0.2 0,-0.2 0.17,-0.2 0.34,-0.2 z"
         inkscape:connector-curvature="0"
         style="fill:#000000;stroke-width:0" /><path
         id="path4310"
         d="m 264.08,662.89 0,0.07 -0.01,0.07 0,0.06 -0.02,0.07 -0.01,0.06 -0.02,0.07 -0.02,0.06 -0.02,0.06 -0.02,0.06 -0.03,0.06 -0.03,0.06 -0.04,0.06 -0.03,0.05 -0.04,0.05 -0.04,0.05 -0.05,0.05 -0.04,0.04 -0.05,0.05 -0.05,0.04 -0.05,0.03 -0.06,0.04 -0.05,0.03 -0.06,0.03 -0.06,0.03 -0.07,0.02 -0.06,0.03 -0.07,0.01 -0.07,0.02 -0.07,0.01 -0.07,0.01 -0.07,0.01 -0.08,0 c -0.58,0 -0.85,-0.16 -1.2,-0.42 -0.55,-0.4 -1.1,-1.36 -1.29,-2.11 l -1.59,-6.31 c 0,-0.04 0.04,-0.1 0.13,-0.1 0.08,0 0.11,0.02 0.11,0.05 l 0.7,2.74 c 0.19,-0.6 0.63,-0.96 1.36,-0.96 l -0.03,0.21 c -0.76,0 -1.14,0.58 -1.14,1.29 0,0.09 0,0.24 0.05,0.43 l 0.64,2.52 c 0.22,0.85 0.94,2.43 2.13,2.43 0.58,0 0.93,-0.31 0.93,-0.9 l 0,0 c 0,-0.7 -0.38,-1.41 -0.9,-1.72 -0.26,0.1 -0.47,0.12 -0.76,0.12 -0.21,0 -0.77,0.01 -0.77,-0.32 -0.01,-0.28 0.51,-0.25 0.69,-0.25 l 0.03,0.22 c -0.14,0 -0.34,-0.01 -0.44,0.04 0.02,0.1 0.38,0.08 0.49,0.08 0.21,0 0.29,0 0.43,-0.05 l 0,0 c -0.14,-0.05 -0.24,-0.07 -0.48,-0.07 l -0.03,-0.22 c 0.36,0 0.52,0.01 0.81,0.13 0.38,-0.36 0.43,-0.67 0.44,-1.12 0.02,-0.58 -0.22,-1.32 -0.5,-1.71 -0.39,-0.54 -1.05,-0.9 -1.62,-0.9 l 0.03,-0.21 c 0.73,0 1.48,0.34 1.92,0.78 0.48,0.46 0.8,1.09 0.8,1.83 0,0.71 -0.37,1.23 -0.73,1.48 0.58,0.33 1.15,0.94 1.15,1.66 z"
         inkscape:connector-curvature="0"
         style="fill:#000000;stroke-width:0" /><path
         id="path4312"
         d="m 267.39,659.72 0,0.07 0,0.08 0,0.08 -0.01,0.08 0,0.17 -0.02,0.17 -0.01,0.18 -0.02,0.19 -0.03,0.2 -0.03,0.2 -0.04,0.2 -0.05,0.21 -0.05,0.21 -0.07,0.21 -0.06,0.21 -0.08,0.21 -0.05,0.11 -0.04,0.11 -0.05,0.1 -0.05,0.11 c -0.6,1.22 -1.46,1.86 -1.56,1.86 -0.06,0 -0.09,-0.03 -0.09,-0.09 0,-0.03 0,-0.05 0.19,-0.23 0.97,-0.99 1.54,-2.57 1.54,-4.64 0,-1.7 -0.37,-3.45 -1.61,-4.7 -0.12,-0.12 -0.12,-0.14 -0.12,-0.17 0,-0.06 0.03,-0.1 0.09,-0.1 0.1,0 1,0.68 1.59,1.94 0.51,1.09 0.63,2.19 0.63,3.03 z"
         inkscape:connector-curvature="0"
         style="fill:#000000;stroke-width:0" /></g>    <g
       style="font-style:normal;font-variant:normal;font-weight:normal;font-stretch:normal;letter-spacing:normal;word-spacing:normal;text-anchor:start;fill:none;fill-opacity:1;fill-rule:evenodd;stroke:#000000;stroke-linecap:butt;stroke-linejoin:miter;stroke-miterlimit:10.43299961;stroke-dasharray:none;stroke-dashoffset:0;stroke-opacity:1"
       id="content"
       transform="matrix(5,0,0,-5,-1794.2857,3272.8572)"
       xml:space="preserve"
       stroke-miterlimit="10.433"
       font-style="normal"
       font-variant="normal"
       font-weight="normal"
       font-stretch="normal"
       font-size-adjust="none"
       letter-spacing="normal"
       word-spacing="normal"
       ns0:text="$\\alpha \\exp(-\\beta/2)$"
       ns0:preamble=""><path
         style="fill:#000000;stroke-width:0"
         inkscape:connector-curvature="0"
         d="m 228.19,659.58 0,0.07 0,0.07 -0.01,0.07 0,0.07 -0.01,0.13 -0.02,0.12 -0.02,0.12 -0.03,0.12 -0.03,0.1 -0.04,0.11 -0.04,0.09 -0.04,0.1 -0.04,0.08 -0.05,0.08 -0.06,0.08 -0.05,0.07 -0.06,0.07 -0.06,0.06 -0.06,0.05 -0.06,0.06 -0.07,0.05 -0.07,0.04 -0.06,0.04 -0.07,0.04 -0.07,0.03 -0.08,0.03 -0.07,0.02 -0.07,0.02 -0.07,0.02 -0.07,0.01 -0.08,0.01 -0.07,0.01 -0.07,0 -0.07,0.01 c -1.36,0 -2.68,-1.42 -2.68,-2.83 0,-0.92 0.6,-1.67 1.62,-1.67 l 0.02,0.21 c -0.6,0 -0.9,0.45 -0.9,1.09 0,0.48 0.26,1.56 0.58,2.06 0.47,0.73 1,0.92 1.35,0.92 0.99,0 0.99,-1.3 0.99,-2.08 0,-0.37 0,-0.94 0.02,-1.11 l 0,0 c -0.88,-0.77 -1.64,-0.88 -2.04,-0.88 l -0.02,-0.21 c 0.63,0 1.34,0.22 2.1,0.83 0.13,-0.53 0.46,-0.83 0.91,-0.83 0.53,0 0.84,0.54 0.84,0.7 0,0.07 -0.06,0.1 -0.12,0.1 -0.07,0 -0.1,-0.03 -0.13,-0.1 -0.18,-0.49 -0.54,-0.49 -0.56,-0.49 -0.31,0 -0.31,0.78 -0.31,1.02 0,0.21 0,0.23 0.1,0.35 0.94,1.17 1.14,2.32 1.14,2.33 0,0.02 0,0.1 -0.11,0.1 -0.1,0 -0.1,-0.03 -0.15,-0.21 -0.18,-0.63 -0.51,-1.38 -0.98,-1.97 z"
         id="path4453" /><path
         style="fill:#000000;stroke-width:0"
         inkscape:connector-curvature="0"
         d="m 232.61,659.53 0.01,0.21 c 0.06,1.48 0.9,1.73 1.24,1.73 1.02,0 1.12,-1.34 1.12,-1.73 l -2.36,0 -0.01,-0.21 2.78,0 c 0.22,0 0.25,0 0.25,0.21 0,0.98 -0.54,1.94 -1.78,1.94 -1.16,0 -2.08,-1.02 -2.08,-2.26 0,-1.33 1.05,-2.29 2.2,-2.29 1.21,0 1.66,1.1 1.66,1.29 0,0.1 -0.08,0.12 -0.13,0.12 -0.09,0 -0.11,-0.06 -0.13,-0.14 -0.35,-1.03 -1.24,-1.03 -1.34,-1.03 -0.5,0 -0.9,0.3 -1.13,0.67 -0.3,0.48 -0.3,1.13 -0.3,1.49 z"
         id="path4455" /><path
         style="fill:#000000;stroke-width:0"
         inkscape:connector-curvature="0"
         d="m 238.79,659.57 0.06,0.07 0.06,0.08 0.06,0.07 0.06,0.08 0.12,0.15 0.06,0.08 0.06,0.08 0.06,0.07 0.06,0.07 0.06,0.07 0.06,0.07 0.03,0.03 0.02,0.03 0.03,0.04 0.02,0.03 0.03,0.02 0.02,0.03 0.03,0.03 0.02,0.02 c 0.31,0.36 0.72,0.51 1.19,0.52 l 0,0.31 c -0.26,-0.02 -0.56,-0.03 -0.82,-0.03 -0.3,0 -0.83,0.02 -0.96,0.03 l 0,-0.31 c 0.21,-0.02 0.29,-0.15 0.29,-0.31 0,-0.16 -0.1,-0.29 -0.15,-0.35 l -0.62,-0.77 -0.77,1 c -0.1,0.1 -0.1,0.12 -0.1,0.18 0,0.15 0.16,0.24 0.35,0.25 l 0,0.31 c -0.25,-0.01 -0.91,-0.03 -1.07,-0.03 -0.21,0 -0.68,0.01 -0.95,0.03 l 0,-0.31 c 0.7,0 0.71,-0.01 1.18,-0.61 l 0.98,-1.28 -0.93,-1.18 c -0.48,-0.58 -1.07,-0.6 -1.28,-0.6 l 0,-0.31 c 0.26,0.03 0.57,0.04 0.83,0.04 0.29,0 0.71,-0.03 0.94,-0.04 l 0,0.31 c -0.21,0.03 -0.28,0.16 -0.28,0.31 0,0.22 0.28,0.55 0.89,1.26 l 0.76,-0.99 c 0.08,-0.11 0.21,-0.27 0.21,-0.33 0,-0.09 -0.09,-0.24 -0.36,-0.25 l 0,-0.31 c 0.3,0.01 0.86,0.04 1.08,0.04 0.27,0 0.66,-0.01 0.96,-0.04 l 0,0.31 c -0.54,0 -0.72,0.02 -0.95,0.31 z"
         id="path4457" /><path
         style="fill:#000000;stroke-width:0"
         inkscape:connector-curvature="0"
         d="m 242.9,660.97 0,0.66 -1.43,-0.11 0,-0.31 c 0.71,0 0.78,-0.06 0.78,-0.5 l 0,-4.65 c 0,-0.44 -0.11,-0.44 -0.78,-0.44 l 0,-0.31 c 0.34,0.01 0.85,0.03 1.12,0.03 0.26,0 0.77,-0.02 1.12,-0.03 l 0,0.31 c -0.67,0 -0.78,0 -0.78,0.44 l 0,1.67 0,0.09 0.14,0.13 c -0.14,0.21 -0.14,0.22 -0.14,0.42 l 0,0 0,2.21 c 0.29,0.51 0.78,0.8 1.29,0.8 0.73,0 1.34,-0.88 1.34,-2 0,-1.2 -0.7,-2.04 -1.44,-2.04 -0.4,0 -0.78,0.2 -1.05,0.61 l -0.14,-0.13 c 0.05,-0.16 0.47,-0.69 1.23,-0.69 1.19,0 2.22,0.97 2.22,2.25 0,1.26 -0.96,2.25 -2.08,2.25 -0.78,0 -1.2,-0.44 -1.4,-0.66 z"
         id="path4459" /><path
         style="fill:#000000;stroke-width:0"
         inkscape:connector-curvature="0"
         d="m 250.02,654.85 0,0.01 0,0 0,0 0,0.01 0,0 0,0 0,0.01 0,0 0,0 0,0.01 -0.01,0 0,0.01 0,0 -0.01,0.01 0,0 -0.01,0.01 0,0.01 -0.01,0 0,0.01 0,0 -0.01,0.01 0,0 0,0 -0.01,0.01 0,0 -0.01,0.01 0,0 -0.01,0.01 0,0 -0.01,0.01 0,0 -0.01,0.01 0,0.01 -0.01,0 -0.01,0.01 0,0.01 -0.01,0 -0.01,0.01 0,0.01 -0.01,0 -0.01,0.01 -0.01,0.01 c -1.24,1.25 -1.56,3.13 -1.56,4.65 0,1.73 0.38,3.45 1.61,4.7 0.12,0.12 0.12,0.14 0.12,0.17 0,0.07 -0.03,0.09 -0.09,0.09 -0.11,0 -1,-0.67 -1.59,-1.93 -0.51,-1.09 -0.63,-2.2 -0.63,-3.03 0,-0.78 0.11,-1.98 0.66,-3.1 0.6,-1.22 1.45,-1.87 1.56,-1.87 0.06,0 0.09,0.03 0.09,0.1 z"
         id="path4461" /><path
         style="fill:#000000;stroke-width:0"
         inkscape:connector-curvature="0"
         d="m 257.17,659.52 0.03,0 0.03,0 0.03,0 0.02,0 0.02,0 0.01,0 0.02,0.01 0.01,0 0.01,0 0.02,0 0.01,0.01 0.02,0 0.01,0 0.01,0.01 0.01,0.01 0.01,0 0.01,0.01 0.01,0.01 0.01,0 0.01,0.01 0.01,0.01 0,0.01 0.01,0 0,0.01 0,0.01 0,0 0.01,0.01 0,0.01 0,0 0,0.01 0,0.01 0.01,0.01 0,0 0,0.01 0,0.01 0,0.01 0,0.01 c 0,0.2 -0.18,0.2 -0.35,0.2 l -5.4,0 c -0.17,0 -0.34,0 -0.34,-0.2 0,-0.2 0.17,-0.2 0.34,-0.2 z"
         id="path4463" /><path
         style="fill:#000000;stroke-width:0"
         inkscape:connector-curvature="0"
         d="m 264.08,662.89 0,0.07 -0.01,0.07 0,0.06 -0.02,0.07 -0.01,0.06 -0.02,0.07 -0.02,0.06 -0.02,0.06 -0.02,0.06 -0.03,0.06 -0.03,0.06 -0.04,0.06 -0.03,0.05 -0.04,0.05 -0.04,0.05 -0.05,0.05 -0.04,0.04 -0.05,0.05 -0.05,0.04 -0.05,0.03 -0.06,0.04 -0.05,0.03 -0.06,0.03 -0.06,0.03 -0.07,0.02 -0.06,0.03 -0.07,0.01 -0.07,0.02 -0.07,0.01 -0.07,0.01 -0.07,0.01 -0.08,0 c -0.58,0 -0.85,-0.16 -1.2,-0.42 -0.55,-0.4 -1.1,-1.36 -1.29,-2.11 l -1.59,-6.31 c 0,-0.04 0.04,-0.1 0.13,-0.1 0.08,0 0.11,0.02 0.11,0.05 l 0.7,2.74 c 0.19,-0.6 0.63,-0.96 1.36,-0.96 l -0.03,0.21 c -0.76,0 -1.14,0.58 -1.14,1.29 0,0.09 0,0.24 0.05,0.43 l 0.64,2.52 c 0.22,0.85 0.94,2.43 2.13,2.43 0.58,0 0.93,-0.31 0.93,-0.9 l 0,0 c 0,-0.7 -0.38,-1.41 -0.9,-1.72 -0.26,0.1 -0.47,0.12 -0.76,0.12 -0.21,0 -0.77,0.01 -0.77,-0.32 -0.01,-0.28 0.51,-0.25 0.69,-0.25 l 0.03,0.22 c -0.14,0 -0.34,-0.01 -0.44,0.04 0.02,0.1 0.38,0.08 0.49,0.08 0.21,0 0.29,0 0.43,-0.05 l 0,0 c -0.14,-0.05 -0.24,-0.07 -0.48,-0.07 l -0.03,-0.22 c 0.36,0 0.52,0.01 0.81,0.13 0.38,-0.36 0.43,-0.67 0.44,-1.12 0.02,-0.58 -0.22,-1.32 -0.5,-1.71 -0.39,-0.54 -1.05,-0.9 -1.62,-0.9 l 0.03,-0.21 c 0.73,0 1.48,0.34 1.92,0.78 0.48,0.46 0.8,1.09 0.8,1.83 0,0.71 -0.37,1.23 -0.73,1.48 0.58,0.33 1.15,0.94 1.15,1.66 z"
         id="path4465" /><path
         style="fill:#000000;stroke-width:0"
         inkscape:connector-curvature="0"
         d="m 268.89,664.31 0,0 0,0.01 0,0.01 0.01,0 0,0.01 0,0 0,0.01 0.01,0.01 0,0.01 0,0.01 0.01,0.01 0,0.01 0,0 0,0.01 0,0.01 0.01,0.01 0,0 0,0.01 0,0 0,0.01 0,0 0,0.01 0,0 0,0 0,0.01 0,0 0.01,0 0,0.01 0,0 0,0 0,0 0,0 0,0 0,0.01 0,0 c 0,0.11 -0.09,0.19 -0.2,0.19 -0.07,0 -0.14,-0.02 -0.17,-0.08 l -3.46,-9.47 c -0.05,-0.13 -0.05,-0.17 -0.05,-0.18 0,-0.11 0.09,-0.2 0.2,-0.2 0.13,0 0.16,0.07 0.22,0.24 z"
         id="path4467" /><path
         style="fill:#000000;stroke-width:0"
         inkscape:connector-curvature="0"
         d="m 270.76,658 1.05,1.02 c 1.56,1.37 2.16,1.91 2.16,2.9 0,1.14 -0.9,1.93 -2.12,1.93 -1.12,0 -1.86,-0.91 -1.86,-1.8 0,-0.55 0.5,-0.55 0.53,-0.55 0.17,0 0.52,0.12 0.52,0.52 0,0.26 -0.18,0.52 -0.53,0.52 -0.08,0 -0.1,0 -0.13,-0.01 0.23,0.64 0.76,1.01 1.34,1.01 0.91,0 1.34,-0.8 1.34,-1.62 0,-0.79 -0.5,-1.58 -1.05,-2.19 l -1.91,-2.13 c -0.11,-0.11 -0.11,-0.13 -0.11,-0.37 l 3.7,0 0.28,1.73 -0.25,0 c -0.05,-0.3 -0.12,-0.73 -0.22,-0.88 C 273.43,658 272.77,658 272.55,658 Z"
         id="path4469" /><path
         style="fill:#000000;stroke-width:0"
         inkscape:connector-curvature="0"
         d="m 277.35,659.72 0,0.07 0,0.08 0,0.08 0,0.08 -0.01,0.17 -0.01,0.17 -0.02,0.18 -0.02,0.19 -0.03,0.2 -0.03,0.2 -0.04,0.2 -0.05,0.21 -0.05,0.21 -0.06,0.21 -0.07,0.21 -0.08,0.21 -0.04,0.11 -0.05,0.11 -0.05,0.1 -0.05,0.11 c -0.59,1.22 -1.45,1.86 -1.55,1.86 -0.06,0 -0.1,-0.03 -0.1,-0.09 0,-0.03 0,-0.05 0.19,-0.23 0.98,-0.99 1.54,-2.57 1.54,-4.64 0,-1.7 -0.37,-3.45 -1.6,-4.7 -0.13,-0.12 -0.13,-0.14 -0.13,-0.17 0,-0.06 0.04,-0.1 0.1,-0.1 0.1,0 1,0.68 1.58,1.94 0.51,1.09 0.63,2.19 0.63,3.03 z"
         id="path4471" /></g>    <g
       ns0:preamble=""
       ns0:text="$\\alpha \\exp(-\\beta / 3)$"
       word-spacing="normal"
       letter-spacing="normal"
       font-size-adjust="none"
       font-stretch="normal"
       font-weight="normal"
       font-variant="normal"
       font-style="normal"
       stroke-miterlimit="10.433"
       xml:space="preserve"
       transform="matrix(5,0,0,-5,-2020,3507.1429)"
       id="g4611"
       style="font-style:normal;font-variant:normal;font-weight:normal;font-stretch:normal;letter-spacing:normal;word-spacing:normal;text-anchor:start;fill:none;fill-opacity:1;fill-rule:evenodd;stroke:#000000;stroke-linecap:butt;stroke-linejoin:miter;stroke-miterlimit:10.43299961;stroke-dasharray:none;stroke-dashoffset:0;stroke-opacity:1"><path
         id="path4613"
         d="m 228.19,659.58 0,0.07 0,0.07 -0.01,0.07 0,0.07 -0.01,0.13 -0.02,0.12 -0.02,0.12 -0.03,0.12 -0.03,0.1 -0.04,0.11 -0.04,0.09 -0.04,0.1 -0.04,0.08 -0.05,0.08 -0.06,0.08 -0.05,0.07 -0.06,0.07 -0.06,0.06 -0.06,0.05 -0.06,0.06 -0.07,0.05 -0.07,0.04 -0.06,0.04 -0.07,0.04 -0.07,0.03 -0.08,0.03 -0.07,0.02 -0.07,0.02 -0.07,0.02 -0.07,0.01 -0.08,0.01 -0.07,0.01 -0.07,0 -0.07,0.01 c -1.36,0 -2.68,-1.42 -2.68,-2.83 0,-0.92 0.6,-1.67 1.62,-1.67 l 0.02,0.21 c -0.6,0 -0.9,0.45 -0.9,1.09 0,0.48 0.26,1.56 0.58,2.06 0.47,0.73 1,0.92 1.35,0.92 0.99,0 0.99,-1.3 0.99,-2.08 0,-0.37 0,-0.94 0.02,-1.11 l 0,0 c -0.88,-0.77 -1.64,-0.88 -2.04,-0.88 l -0.02,-0.21 c 0.63,0 1.34,0.22 2.1,0.83 0.13,-0.53 0.46,-0.83 0.91,-0.83 0.53,0 0.84,0.54 0.84,0.7 0,0.07 -0.06,0.1 -0.12,0.1 -0.07,0 -0.1,-0.03 -0.13,-0.1 -0.18,-0.49 -0.54,-0.49 -0.56,-0.49 -0.31,0 -0.31,0.78 -0.31,1.02 0,0.21 0,0.23 0.1,0.35 0.94,1.17 1.14,2.32 1.14,2.33 0,0.02 0,0.1 -0.11,0.1 -0.1,0 -0.1,-0.03 -0.15,-0.21 -0.18,-0.63 -0.51,-1.38 -0.98,-1.97 z"
         inkscape:connector-curvature="0"
         style="fill:#000000;stroke-width:0" /><path
         id="path4615"
         d="m 232.61,659.53 0.01,0.21 c 0.06,1.48 0.9,1.73 1.24,1.73 1.02,0 1.12,-1.34 1.12,-1.73 l -2.36,0 -0.01,-0.21 2.78,0 c 0.22,0 0.25,0 0.25,0.21 0,0.98 -0.54,1.94 -1.78,1.94 -1.16,0 -2.08,-1.02 -2.08,-2.26 0,-1.33 1.05,-2.29 2.2,-2.29 1.21,0 1.66,1.1 1.66,1.29 0,0.1 -0.08,0.12 -0.13,0.12 -0.09,0 -0.11,-0.06 -0.13,-0.14 -0.35,-1.03 -1.24,-1.03 -1.34,-1.03 -0.5,0 -0.9,0.3 -1.13,0.67 -0.3,0.48 -0.3,1.13 -0.3,1.49 z"
         inkscape:connector-curvature="0"
         style="fill:#000000;stroke-width:0" /><path
         id="path4617"
         d="m 238.79,659.57 0.06,0.07 0.06,0.08 0.06,0.07 0.06,0.08 0.12,0.15 0.06,0.08 0.06,0.08 0.06,0.07 0.06,0.07 0.06,0.07 0.06,0.07 0.03,0.03 0.02,0.03 0.03,0.04 0.02,0.03 0.03,0.02 0.02,0.03 0.03,0.03 0.02,0.02 c 0.31,0.36 0.72,0.51 1.19,0.52 l 0,0.31 c -0.26,-0.02 -0.56,-0.03 -0.82,-0.03 -0.3,0 -0.83,0.02 -0.96,0.03 l 0,-0.31 c 0.21,-0.02 0.29,-0.15 0.29,-0.31 0,-0.16 -0.1,-0.29 -0.15,-0.35 l -0.62,-0.77 -0.77,1 c -0.1,0.1 -0.1,0.12 -0.1,0.18 0,0.15 0.16,0.24 0.35,0.25 l 0,0.31 c -0.25,-0.01 -0.91,-0.03 -1.07,-0.03 -0.21,0 -0.68,0.01 -0.95,0.03 l 0,-0.31 c 0.7,0 0.71,-0.01 1.18,-0.61 l 0.98,-1.28 -0.93,-1.18 c -0.48,-0.58 -1.07,-0.6 -1.28,-0.6 l 0,-0.31 c 0.26,0.03 0.57,0.04 0.83,0.04 0.29,0 0.71,-0.03 0.94,-0.04 l 0,0.31 c -0.21,0.03 -0.28,0.16 -0.28,0.31 0,0.22 0.28,0.55 0.89,1.26 l 0.76,-0.99 c 0.08,-0.11 0.21,-0.27 0.21,-0.33 0,-0.09 -0.09,-0.24 -0.36,-0.25 l 0,-0.31 c 0.3,0.01 0.86,0.04 1.08,0.04 0.27,0 0.66,-0.01 0.96,-0.04 l 0,0.31 c -0.54,0 -0.72,0.02 -0.95,0.31 z"
         inkscape:connector-curvature="0"
         style="fill:#000000;stroke-width:0" /><path
         id="path4619"
         d="m 242.9,660.97 0,0.66 -1.43,-0.11 0,-0.31 c 0.71,0 0.78,-0.06 0.78,-0.5 l 0,-4.65 c 0,-0.44 -0.11,-0.44 -0.78,-0.44 l 0,-0.31 c 0.34,0.01 0.85,0.03 1.12,0.03 0.26,0 0.77,-0.02 1.12,-0.03 l 0,0.31 c -0.67,0 -0.78,0 -0.78,0.44 l 0,1.67 0,0.09 0.14,0.13 c -0.14,0.21 -0.14,0.22 -0.14,0.42 l 0,0 0,2.21 c 0.29,0.51 0.78,0.8 1.29,0.8 0.73,0 1.34,-0.88 1.34,-2 0,-1.2 -0.7,-2.04 -1.44,-2.04 -0.4,0 -0.78,0.2 -1.05,0.61 l -0.14,-0.13 c 0.05,-0.16 0.47,-0.69 1.23,-0.69 1.19,0 2.22,0.97 2.22,2.25 0,1.26 -0.96,2.25 -2.08,2.25 -0.78,0 -1.2,-0.44 -1.4,-0.66 z"
         inkscape:connector-curvature="0"
         style="fill:#000000;stroke-width:0" /><path
         id="path4621"
         d="m 250.02,654.85 0,0.01 0,0 0,0 0,0.01 0,0 0,0 0,0.01 0,0 0,0 0,0.01 -0.01,0 0,0.01 0,0 -0.01,0.01 0,0 -0.01,0.01 0,0.01 -0.01,0 0,0.01 0,0 -0.01,0.01 0,0 0,0 -0.01,0.01 0,0 -0.01,0.01 0,0 -0.01,0.01 0,0 -0.01,0.01 0,0 -0.01,0.01 0,0.01 -0.01,0 -0.01,0.01 0,0.01 -0.01,0 -0.01,0.01 0,0.01 -0.01,0 -0.01,0.01 -0.01,0.01 c -1.24,1.25 -1.56,3.13 -1.56,4.65 0,1.73 0.38,3.45 1.61,4.7 0.12,0.12 0.12,0.14 0.12,0.17 0,0.07 -0.03,0.09 -0.09,0.09 -0.11,0 -1,-0.67 -1.59,-1.93 -0.51,-1.09 -0.63,-2.2 -0.63,-3.03 0,-0.78 0.11,-1.98 0.66,-3.1 0.6,-1.22 1.45,-1.87 1.56,-1.87 0.06,0 0.09,0.03 0.09,0.1 z"
         inkscape:connector-curvature="0"
         style="fill:#000000;stroke-width:0" /><path
         id="path4623"
         d="m 257.17,659.52 0.03,0 0.03,0 0.03,0 0.02,0 0.02,0 0.01,0 0.02,0.01 0.01,0 0.01,0 0.02,0 0.01,0.01 0.02,0 0.01,0 0.01,0.01 0.01,0.01 0.01,0 0.01,0.01 0.01,0.01 0.01,0 0.01,0.01 0.01,0.01 0,0.01 0.01,0 0,0.01 0,0.01 0,0 0.01,0.01 0,0.01 0,0 0,0.01 0,0.01 0.01,0.01 0,0 0,0.01 0,0.01 0,0.01 0,0.01 c 0,0.2 -0.18,0.2 -0.35,0.2 l -5.4,0 c -0.17,0 -0.34,0 -0.34,-0.2 0,-0.2 0.17,-0.2 0.34,-0.2 z"
         inkscape:connector-curvature="0"
         style="fill:#000000;stroke-width:0" /><path
         id="path4625"
         d="m 264.08,662.89 0,0.07 -0.01,0.07 0,0.06 -0.02,0.07 -0.01,0.06 -0.02,0.07 -0.02,0.06 -0.02,0.06 -0.02,0.06 -0.03,0.06 -0.03,0.06 -0.04,0.06 -0.03,0.05 -0.04,0.05 -0.04,0.05 -0.05,0.05 -0.04,0.04 -0.05,0.05 -0.05,0.04 -0.05,0.03 -0.06,0.04 -0.05,0.03 -0.06,0.03 -0.06,0.03 -0.07,0.02 -0.06,0.03 -0.07,0.01 -0.07,0.02 -0.07,0.01 -0.07,0.01 -0.07,0.01 -0.08,0 c -0.58,0 -0.85,-0.16 -1.2,-0.42 -0.55,-0.4 -1.1,-1.36 -1.29,-2.11 l -1.59,-6.31 c 0,-0.04 0.04,-0.1 0.13,-0.1 0.08,0 0.11,0.02 0.11,0.05 l 0.7,2.74 c 0.19,-0.6 0.63,-0.96 1.36,-0.96 l -0.03,0.21 c -0.76,0 -1.14,0.58 -1.14,1.29 0,0.09 0,0.24 0.05,0.43 l 0.64,2.52 c 0.22,0.85 0.94,2.43 2.13,2.43 0.58,0 0.93,-0.31 0.93,-0.9 l 0,0 c 0,-0.7 -0.38,-1.41 -0.9,-1.72 -0.26,0.1 -0.47,0.12 -0.76,0.12 -0.21,0 -0.77,0.01 -0.77,-0.32 -0.01,-0.28 0.51,-0.25 0.69,-0.25 l 0.03,0.22 c -0.14,0 -0.34,-0.01 -0.44,0.04 0.02,0.1 0.38,0.08 0.49,0.08 0.21,0 0.29,0 0.43,-0.05 l 0,0 c -0.14,-0.05 -0.24,-0.07 -0.48,-0.07 l -0.03,-0.22 c 0.36,0 0.52,0.01 0.81,0.13 0.38,-0.36 0.43,-0.67 0.44,-1.12 0.02,-0.58 -0.22,-1.32 -0.5,-1.71 -0.39,-0.54 -1.05,-0.9 -1.62,-0.9 l 0.03,-0.21 c 0.73,0 1.48,0.34 1.92,0.78 0.48,0.46 0.8,1.09 0.8,1.83 0,0.71 -0.37,1.23 -0.73,1.48 0.58,0.33 1.15,0.94 1.15,1.66 z"
         inkscape:connector-curvature="0"
         style="fill:#000000;stroke-width:0" /><path
         id="path4627"
         d="m 268.89,664.31 0,0 0,0.01 0,0.01 0.01,0 0,0.01 0,0 0,0.01 0.01,0.01 0,0.01 0,0.01 0.01,0.01 0,0.01 0,0 0,0.01 0,0.01 0.01,0.01 0,0 0,0.01 0,0 0,0.01 0,0 0,0.01 0,0 0,0 0,0.01 0,0 0.01,0 0,0.01 0,0 0,0 0,0 0,0 0,0 0,0.01 0,0 c 0,0.11 -0.09,0.19 -0.2,0.19 -0.07,0 -0.14,-0.02 -0.17,-0.08 l -3.46,-9.47 c -0.05,-0.13 -0.05,-0.17 -0.05,-0.18 0,-0.11 0.09,-0.2 0.2,-0.2 0.13,0 0.16,0.07 0.22,0.24 z"
         inkscape:connector-curvature="0"
         style="fill:#000000;stroke-width:0" /><path
         id="path4629"
         d="m 272.38,660.73 0.08,0.03 0.07,0.03 0.07,0.03 0.08,0.03 0.07,0.04 0.06,0.04 0.07,0.04 0.06,0.04 0.07,0.04 0.06,0.05 0.06,0.05 0.05,0.05 0.06,0.05 0.05,0.05 0.05,0.06 0.05,0.05 0.04,0.06 0.04,0.06 0.04,0.06 0.04,0.06 0.04,0.07 0.03,0.06 0.03,0.07 0.02,0.06 0.03,0.07 0.02,0.07 0.02,0.07 0.01,0.07 0.01,0.07 0.01,0.07 0.01,0.08 0,0.07 c 0,0.81 -0.88,1.37 -1.84,1.37 -1.01,0 -1.76,-0.59 -1.76,-1.35 0,-0.33 0.22,-0.52 0.51,-0.52 0.3,0 0.5,0.22 0.5,0.51 0,0.5 -0.46,0.5 -0.61,0.5 0.31,0.48 0.96,0.61 1.32,0.61 0.41,0 0.96,-0.22 0.96,-1.11 0,-0.12 -0.02,-0.7 -0.28,-1.13 -0.3,-0.48 -0.64,-0.51 -0.89,-0.52 -0.08,-0.01 -0.32,-0.03 -0.39,-0.03 -0.08,-0.01 -0.15,-0.02 -0.15,-0.12 0,-0.11 0.07,-0.11 0.24,-0.11 l 0.44,0 c 0.82,0 1.19,-0.67 1.19,-1.65 0,-1.35 -0.69,-1.64 -1.13,-1.64 -0.43,0 -1.17,0.17 -1.52,0.76 0.35,-0.05 0.65,0.17 0.65,0.55 0,0.35 -0.26,0.55 -0.55,0.55 -0.24,0 -0.56,-0.14 -0.56,-0.57 0,-0.91 0.92,-1.56 2.01,-1.56 1.22,0 2.13,0.9 2.13,1.91 0,0.82 -0.63,1.59 -1.67,1.8 z"
         inkscape:connector-curvature="0"
         style="fill:#000000;stroke-width:0" /><path
         id="path4631"
         d="m 277.35,659.72 0,0.07 0,0.08 0,0.08 0,0.08 -0.01,0.17 -0.01,0.17 -0.02,0.18 -0.02,0.19 -0.03,0.2 -0.03,0.2 -0.04,0.2 -0.05,0.21 -0.05,0.21 -0.06,0.21 -0.07,0.21 -0.08,0.21 -0.04,0.11 -0.05,0.11 -0.05,0.1 -0.05,0.11 c -0.59,1.22 -1.45,1.86 -1.55,1.86 -0.06,0 -0.1,-0.03 -0.1,-0.09 0,-0.03 0,-0.05 0.19,-0.23 0.98,-0.99 1.54,-2.57 1.54,-4.64 0,-1.7 -0.37,-3.45 -1.6,-4.7 -0.13,-0.12 -0.13,-0.14 -0.13,-0.17 0,-0.06 0.04,-0.1 0.1,-0.1 0.1,0 1,0.68 1.58,1.94 0.51,1.09 0.63,2.19 0.63,3.03 z"
         inkscape:connector-curvature="0"
         style="fill:#000000;stroke-width:0" /></g>    <ellipse
       ry="57.142857"
       rx="57.14286"
       cy="116.78994"
       cx="-615.70172"
       id="path10965-3"
       style="opacity:0.98000004;fill:none;fill-opacity:1;fill-rule:nonzero;stroke:#000000;stroke-width:5;stroke-linecap:butt;stroke-linejoin:miter;stroke-miterlimit:4;stroke-dasharray:none;stroke-dashoffset:0;stroke-opacity:1" />
    <ellipse
       ry="57.142857"
       rx="57.14286"
       cy="-118.92434"
       cx="-768.38031"
       id="path10965-6"
       style="opacity:0.98000004;fill:none;fill-opacity:1;fill-rule:nonzero;stroke:#000000;stroke-width:5;stroke-linecap:butt;stroke-linejoin:miter;stroke-miterlimit:4;stroke-dasharray:none;stroke-dashoffset:0;stroke-opacity:1" />
  </g>
</svg>
