<?xml version="1.0" encoding="UTF-8" standalone="no"?>
<!-- Created with Inkscape (http://www.inkscape.org/) -->

<svg
   xmlns:ns0="http://www.iki.fi/pav/software/textext/"
   xmlns:osb="http://www.openswatchbook.org/uri/2009/osb"
   xmlns:dc="http://purl.org/dc/elements/1.1/"
   xmlns:cc="http://creativecommons.org/ns#"
   xmlns:rdf="http://www.w3.org/1999/02/22-rdf-syntax-ns#"
   xmlns:svg="http://www.w3.org/2000/svg"
   xmlns="http://www.w3.org/2000/svg"
   xmlns:sodipodi="http://sodipodi.sourceforge.net/DTD/sodipodi-0.dtd"
   xmlns:inkscape="http://www.inkscape.org/namespaces/inkscape"
   width="248.87622mm"
   height="126.59682mm"
   viewBox="0 0 881.84488 448.57142"
   id="svg2"
   version="1.1"
   inkscape:version="0.91 r13725"
   sodipodi:docname="plot5.svg">
  <sodipodi:namedview
     id="base"
     pagecolor="#ffffff"
     bordercolor="#666666"
     borderopacity="1.0"
     inkscape:pageopacity="0.0"
     inkscape:pageshadow="2"
     inkscape:zoom="0.35"
     inkscape:cx="40.714257"
     inkscape:cy="-101.53324"
     inkscape:document-units="px"
     inkscape:current-layer="layer1"
     showgrid="false"
     inkscape:window-width="1276"
     inkscape:window-height="755"
     inkscape:window-x="247"
     inkscape:window-y="114"
     inkscape:window-maximized="0"
     fit-margin-top="0"
     fit-margin-left="0"
     fit-margin-right="0"
     fit-margin-bottom="0" />
  <defs
     id="defs4">
    <linearGradient
       id="linearGradient4488"
       osb:paint="solid">
      <stop
         style="stop-color:#ffffff;stop-opacity:1;"
         offset="0"
         id="stop4490" />
    </linearGradient>
    <marker
       inkscape:stockid="Arrow1Mstart"
       orient="auto"
       refY="0.0"
       refX="0.0"
       id="Arrow1Mstart"
       style="overflow:visible"
       inkscape:isstock="true">
      <path
         id="path4234"
         d="M 0.0,0.0 L 5.0,-5.0 L -12.5,0.0 L 5.0,5.0 L 0.0,0.0 z "
         style="fill-rule:evenodd;stroke:#000000;stroke-width:1pt;stroke-opacity:1;fill:#000000;fill-opacity:1"
         transform="scale(0.4) translate(10,0)" />
    </marker>
    <marker
       inkscape:isstock="true"
       style="overflow:visible"
       id="Arrow2Mend"
       refX="0"
       refY="0"
       orient="auto"
       inkscape:stockid="Arrow2Mend">
      <path
         inkscape:connector-curvature="0"
         transform="scale(-0.6,-0.6)"
         d="M 8.7185878,4.0337352 -2.2072895,0.01601326 8.7185884,-4.0017078 c -1.7454984,2.3720609 -1.7354408,5.6174519 -6e-7,8.035443 z"
         style="fill:#000000;fill-opacity:1;fill-rule:evenodd;stroke:#000000;stroke-width:0.625;stroke-linejoin:round;stroke-opacity:1"
         id="path4171" />
    </marker>
    <marker
       inkscape:isstock="true"
       style="overflow:visible"
       id="marker4426"
       refX="0"
       refY="0"
       orient="auto"
       inkscape:stockid="Arrow1Mend">
      <path
         inkscape:connector-curvature="0"
         transform="matrix(-0.4,0,0,-0.4,-4,0)"
         style="fill:#000000;fill-opacity:1;fill-rule:evenodd;stroke:#000000;stroke-width:1pt;stroke-opacity:1"
         d="M 0,0 5,-5 -12.5,0 5,5 0,0 Z"
         id="path4428" />
    </marker>
    <marker
       inkscape:isstock="true"
       style="overflow:visible"
       id="Arrow1Mend"
       refX="0"
       refY="0"
       orient="auto"
       inkscape:stockid="Arrow1Mend">
      <path
         inkscape:connector-curvature="0"
         transform="matrix(-0.4,0,0,-0.4,-4,0)"
         style="fill:#000000;fill-opacity:1;fill-rule:evenodd;stroke:#000000;stroke-width:1pt;stroke-opacity:1"
         d="M 0,0 5,-5 -12.5,0 5,5 0,0 Z"
         id="path4153" />
    </marker>
  </defs>
  <metadata
     id="metadata7">
    <rdf:RDF>
      <cc:Work
         rdf:about="">
        <dc:format>image/svg+xml</dc:format>
        <dc:type
           rdf:resource="http://purl.org/dc/dcmitype/StillImage" />
        <dc:title />
      </cc:Work>
    </rdf:RDF>
  </metadata>
  <g
     transform="translate(1022.8571,161.20922)"
     id="layer1"
     inkscape:groupmode="layer"
     inkscape:label="Layer 1">
    <path
       inkscape:connector-curvature="0"
       id="path4138"
       d="m -1022.8571,206.64792 874.28567,0"
       style="fill:none;fill-rule:evenodd;stroke:#000000;stroke-width:5;stroke-linecap:butt;stroke-linejoin:miter;stroke-miterlimit:4;stroke-dasharray:none;stroke-opacity:1;marker-end:url(#Arrow2Mend)" />
    <circle
       r="11.428572"
       cy="148.43361"
       cx="-923.92853"
       id="path4494"
       style="opacity:0.98000004;fill:#000000;fill-opacity:1;fill-rule:nonzero;stroke:#000000;stroke-width:5;stroke-linecap:butt;stroke-linejoin:miter;stroke-miterlimit:4;stroke-dasharray:none;stroke-dashoffset:0;stroke-opacity:1" />
    <circle
       r="11.4285"
       cy="57.433678"
       cx="-1001.9286"
       id="path4496"
       style="opacity:0.98000004;fill:#000000;fill-opacity:1;fill-rule:nonzero;stroke:#000000;stroke-width:5;stroke-linecap:butt;stroke-linejoin:miter;stroke-miterlimit:4;stroke-dasharray:none;stroke-dashoffset:0;stroke-opacity:1" />
    <circle
       r="11.4285"
       cy="148.43369"
       cx="-488.92856"
       id="path4498"
       style="opacity:0.98000004;fill:#000000;fill-opacity:1;fill-rule:nonzero;stroke:#000000;stroke-width:5;stroke-linecap:butt;stroke-linejoin:miter;stroke-miterlimit:4;stroke-dasharray:none;stroke-dashoffset:0;stroke-opacity:1" />
    <ellipse
       ry="11.4285"
       rx="11.428499"
       cy="55.433678"
       cx="-728.92859"
       id="path4500"
       style="opacity:0.98000004;fill:#000000;fill-opacity:1;fill-rule:nonzero;stroke:#000000;stroke-width:5;stroke-linecap:butt;stroke-linejoin:miter;stroke-miterlimit:4;stroke-dasharray:none;stroke-dashoffset:0;stroke-opacity:1" />
    <ellipse
       ry="47.5"
       rx="47.500004"
       cy="-107.63783"
       cx="-932.85712"
       id="path4504"
       style="opacity:0.98000004;fill:none;fill-opacity:1;fill-rule:nonzero;stroke:#000000;stroke-width:5;stroke-linecap:butt;stroke-linejoin:miter;stroke-miterlimit:4;stroke-dasharray:none;stroke-dashoffset:0;stroke-opacity:1" />
    <g
       id="g4524"
       transform="matrix(0.98378054,0,0,0.97808555,-469.5462,-62.859822)">
      <g
         word-spacing="normal"
         letter-spacing="normal"
         font-size-adjust="none"
         font-stretch="normal"
         font-weight="normal"
         font-variant="normal"
         font-style="normal"
         stroke-miterlimit="10.433"
         xml:space="preserve"
         transform="matrix(1.0629921,0,0,-1.0629921,-186.02362,789.27165)"
         id="content"
         style="font-style:normal;font-variant:normal;font-weight:normal;font-stretch:normal;letter-spacing:normal;word-spacing:normal;text-anchor:start;fill:none;fill-opacity:1;fill-rule:evenodd;stroke:#000000;stroke-width:1.01944184;stroke-linecap:butt;stroke-linejoin:miter;stroke-miterlimit:10.43299961;stroke-dasharray:none;stroke-dashoffset:0;stroke-opacity:1"><path
           id="path4527"
           d="m 465.79,426.12 4.68,0 c 0.99,0 1.49,0 1.49,1 0,0.55 -0.5,0.55 -1.39,0.55 l -4.39,0 c 1.79,7.08 2.04,8.08 2.04,8.37 0,0.85 -0.59,1.35 -1.43,1.35 -0.16,0 -1.55,-0.05 -2,-1.8 l -1.94,-7.92 -4.69,0 c -1,0 -1.5,0 -1.5,-0.94 0,-0.61 0.41,-0.61 1.41,-0.61 l 4.37,0 c -3.58,-14.14 -3.78,-14.98 -3.78,-15.89 0,-2.69 1.89,-4.58 4.58,-4.58 5.08,0 7.92,7.27 7.92,7.67 0,0.5 -0.39,0.5 -0.59,0.5 -0.46,0 -0.5,-0.15 -0.75,-0.7 -2.14,-5.17 -4.78,-6.37 -6.47,-6.37 -1.05,0 -1.55,0.65 -1.55,2.29 0,1.19 0.09,1.55 0.3,2.39 z"
           inkscape:connector-curvature="0"
           style="fill:#000000;stroke-width:0" /></g>    </g>
    <circle
       r="47.500004"
       style="opacity:0.98000004;fill:#ffffff;fill-opacity:1;fill-rule:nonzero;stroke:#000000;stroke-width:5;stroke-linecap:butt;stroke-linejoin:miter;stroke-miterlimit:4;stroke-dasharray:none;stroke-dashoffset:0;stroke-opacity:1"
       id="path4220"
       cx="-697.85706"
       cy="-107.63783" />
    <path
       style="fill:none;fill-rule:evenodd;stroke:#000000;stroke-width:5.0000003;stroke-linecap:butt;stroke-linejoin:miter;stroke-opacity:1;stroke-miterlimit:4;stroke-dasharray:none;marker-end:url(#Arrow1Mend)"
       d="m -842.8571,-112.63784 54.28571,0"
       id="path4222"
       inkscape:connector-curvature="0" />
    <path
       style="fill:none;fill-rule:evenodd;stroke:#000000;stroke-width:5.00000048;stroke-linecap:butt;stroke-linejoin:miter;stroke-miterlimit:4;stroke-dasharray:none;stroke-opacity:1"
       d="m -1002.8571,55.07644 80,0 0,91.42858 191.42857,0 0,-91.42858 240,0 0,91.42858 242.85714,0"
       id="path4202"
       inkscape:connector-curvature="0" />
    <circle
       style="opacity:0.98000004;fill:#ffffff;fill-opacity:1;fill-rule:nonzero;stroke:#000000;stroke-width:5;stroke-linecap:butt;stroke-linejoin:miter;stroke-miterlimit:4;stroke-dasharray:none;stroke-dashoffset:0;stroke-opacity:1"
       id="path4204"
       cx="-798.92859"
       cy="148.43369"
       r="11.428501" />
    <circle
       style="opacity:0.98000004;fill:#ffffff;fill-opacity:1;fill-rule:nonzero;stroke:#000000;stroke-width:5;stroke-linecap:butt;stroke-linejoin:miter;stroke-miterlimit:4;stroke-dasharray:none;stroke-dashoffset:0;stroke-opacity:1"
       id="path4206"
       cx="-683.92859"
       cy="55.433678"
       r="11.428501" />
    <circle
       style="opacity:0.98000004;fill:#ffffff;fill-opacity:1;fill-rule:nonzero;stroke:#000000;stroke-width:5;stroke-linecap:butt;stroke-linejoin:miter;stroke-miterlimit:4;stroke-dasharray:none;stroke-dashoffset:0;stroke-opacity:1"
       id="path4208"
       cx="-398.92856"
       cy="148.43369"
       r="11.428501" />
    <flowRoot
       xml:space="preserve"
       id="flowRoot4202"
       style="font-style:normal;font-weight:normal;font-size:50.00000381px;line-height:125%;font-family:sans-serif;letter-spacing:0px;word-spacing:0px;fill:#000000;fill-opacity:1;stroke:none;stroke-width:1px;stroke-linecap:butt;stroke-linejoin:miter;stroke-opacity:1"
       transform="translate(390.42808,-133.32586)"><flowRegion
         id="flowRegion4204"><rect
           id="rect4206"
           width="265.71429"
           height="177.14285"
           x="-997.14288"
           y="357.14282"
           style="font-size:50.00000381px" /></flowRegion><flowPara
         id="flowPara4208">5</flowPara></flowRoot>    <g
       style="font-style:normal;font-variant:normal;font-weight:normal;font-stretch:normal;letter-spacing:normal;word-spacing:normal;text-anchor:start;fill:none;fill-opacity:1;fill-rule:evenodd;stroke:#000000;stroke-linecap:butt;stroke-linejoin:miter;stroke-miterlimit:10.43299961;stroke-dasharray:none;stroke-dashoffset:0;stroke-opacity:1"
       id="g4257"
       transform="matrix(5,0,0,-5,-2063.2321,3196.0121)"
       xml:space="preserve"
       stroke-miterlimit="10.433"
       font-style="normal"
       font-variant="normal"
       font-weight="normal"
       font-stretch="normal"
       font-size-adjust="none"
       letter-spacing="normal"
       word-spacing="normal"
       ns0:text="$\\theta\'$"
       ns0:preamble=""><path
         style="fill:#000000;stroke-width:0"
         inkscape:connector-curvature="0"
         d="m 227.97,662.2 0,0.07 0,0.06 -0.01,0.07 0,0.08 -0.01,0.07 0,0.08 -0.01,0.08 -0.01,0.09 -0.02,0.08 -0.01,0.08 -0.02,0.09 -0.02,0.08 -0.02,0.09 -0.03,0.08 -0.03,0.09 -0.03,0.08 -0.03,0.08 -0.04,0.07 -0.04,0.08 -0.04,0.07 -0.05,0.06 -0.05,0.07 -0.05,0.06 -0.06,0.05 -0.06,0.05 -0.04,0.02 -0.03,0.03 -0.03,0.02 -0.04,0.01 -0.04,0.02 -0.03,0.02 -0.04,0.01 -0.04,0.01 -0.04,0.01 -0.05,0.01 -0.04,0.01 -0.04,0 -0.05,0.01 -0.05,0 -0.01,-0.22 c 0.49,0 0.55,-0.64 0.55,-1.2 0,-0.49 -0.08,-1 -0.32,-1.98 l -2.08,0 c 0.17,0.64 0.37,1.43 0.77,2.14 0.27,0.48 0.63,1.04 1.08,1.04 l 0.01,0.22 c -1.38,0 -2.92,-2.8 -2.92,-5.08 0,-0.93 0.29,-2.03 1.2,-2.03 l 0,0.21 c -0.33,0 -0.54,0.29 -0.54,1.22 0,0.41 0.06,0.99 0.32,1.96 l 2.07,0 c -0.11,-0.45 -0.32,-1.3 -0.7,-2.01 -0.35,-0.68 -0.72,-1.17 -1.15,-1.17 l 0,-0.21 c 1.4,0 2.92,2.85 2.92,5.07 z"
         id="path4259" /><path
         style="fill:#000000;stroke-width:0"
         inkscape:connector-curvature="0"
         d="m 230.41,664.13 0.01,0.01 0,0.01 0.01,0.01 0,0.01 0.01,0.01 0,0.01 0,0.01 0.01,0.01 0,0.01 0,0.01 0.01,0 0,0.01 0,0.01 0,0.01 0,0 0.01,0.01 0,0.01 0,0 0,0.01 0,0.01 0,0 0,0.01 0,0 0.01,0.01 0,0.01 0,0.01 0,0.01 0,0.01 c 0,0.21 -0.2,0.38 -0.42,0.38 -0.26,0 -0.35,-0.22 -0.38,-0.33 l -0.92,-3.01 c -0.01,-0.01 -0.04,-0.1 -0.04,-0.11 0,-0.08 0.22,-0.15 0.27,-0.15 0.05,0 0.06,0.01 0.11,0.11 z"
         id="path4261" /></g>    <g
       ns0:preamble=""
       ns0:text="$\\vartheta\'$"
       word-spacing="normal"
       letter-spacing="normal"
       font-size-adjust="none"
       font-stretch="normal"
       font-weight="normal"
       font-variant="normal"
       font-style="normal"
       stroke-miterlimit="10.433"
       xml:space="preserve"
       transform="matrix(5,0,0,-5,-1829.4571,3196.0121)"
       id="g4342"
       style="font-style:normal;font-variant:normal;font-weight:normal;font-stretch:normal;letter-spacing:normal;word-spacing:normal;text-anchor:start;fill:none;fill-opacity:1;fill-rule:evenodd;stroke:#000000;stroke-linecap:butt;stroke-linejoin:miter;stroke-miterlimit:10.43299961;stroke-dasharray:none;stroke-dashoffset:0;stroke-opacity:1"><path
         id="path4344"
         d="m 228.53,660.77 0.02,0.08 0.01,0.07 0.02,0.08 0.01,0.07 0.02,0.07 0.01,0.07 0.01,0.06 0.01,0.07 0.01,0.06 0.01,0.06 0.01,0.06 0.01,0.06 0.01,0.05 0,0.06 0.01,0.05 0,0.04 0.01,0.05 0,0.05 0,0.04 0.01,0.04 0,0.04 0,0.03 0,0.03 0,0.04 0,0.02 0.01,0.03 0,0.03 0,0.02 0,0.02 0,0.01 0,0.02 0,0.01 c 0,0.37 -0.06,1.98 -1.11,1.98 l -0.01,-0.22 c 0.25,0 0.52,-0.15 0.52,-1.18 0,-0.63 -0.16,-1.3 -0.29,-1.87 l 0,0 c -0.49,0.17 -1.45,0.56 -1.45,1.46 0,0.62 0.52,1.59 1.22,1.59 l 0.01,0.22 c -0.83,0 -1.48,-1.04 -1.48,-1.82 0,-0.96 0.94,-1.44 1.64,-1.67 -0.22,-0.89 -0.38,-1.47 -0.71,-2.14 -0.13,-0.28 -0.61,-1.27 -1.19,-1.27 -0.68,0 -0.74,0.51 -0.74,0.8 0,0.26 0.08,0.58 0.13,0.8 0.06,0.25 0.12,0.47 0.19,0.77 l 0.12,0.47 c 0.05,0.17 0.1,0.38 0.1,0.53 0,0.6 -0.45,0.92 -0.91,0.92 -0.46,0 -0.65,-0.39 -0.74,-0.57 -0.18,-0.34 -0.31,-0.93 -0.31,-0.96 0,-0.1 0.1,-0.1 0.12,-0.1 0.1,0 0.11,0.01 0.17,0.22 0.17,0.71 0.37,1.19 0.73,1.19 0.17,0 0.31,-0.08 0.31,-0.46 0,-0.22 -0.14,-0.75 -0.23,-1.12 -0.04,-0.17 -0.13,-0.51 -0.18,-0.73 -0.08,-0.3 -0.14,-0.54 -0.14,-0.83 0,-0.95 0.7,-1.14 1.35,-1.14 1.05,0 2.12,1.57 2.63,3.43 0.1,-0.02 0.39,-0.09 0.45,-0.09 0.04,0 0.1,0.03 0.1,0.12 0,0.08 -0.07,0.09 -0.21,0.12 z"
         inkscape:connector-curvature="0"
         style="fill:#000000;stroke-width:0" /><path
         id="path4346"
         d="m 231.35,664.13 0.01,0.01 0,0.01 0.01,0.01 0,0.01 0,0.01 0.01,0.01 0,0.01 0.01,0.01 0,0.01 0,0.01 0,0 0.01,0.01 0,0.01 0,0.01 0,0 0,0.01 0.01,0.01 0,0 0,0.01 0,0.01 0,0 0,0.01 0,0 0,0.01 0,0.01 0,0.01 0,0.01 0,0.01 c 0,0.21 -0.19,0.38 -0.41,0.38 -0.26,0 -0.35,-0.22 -0.38,-0.33 l -0.92,-3.01 c -0.01,-0.01 -0.04,-0.1 -0.04,-0.11 0,-0.08 0.22,-0.15 0.27,-0.15 0.05,0 0.06,0.01 0.11,0.11 z"
         inkscape:connector-curvature="0"
         style="fill:#000000;stroke-width:0" /></g>  </g>
</svg>
