<?xml version="1.0" encoding="UTF-8" standalone="no"?>
<!-- Created with Inkscape (http://www.inkscape.org/) -->

<svg
   xmlns:dc="http://purl.org/dc/elements/1.1/"
   xmlns:cc="http://creativecommons.org/ns#"
   xmlns:rdf="http://www.w3.org/1999/02/22-rdf-syntax-ns#"
   xmlns:svg="http://www.w3.org/2000/svg"
   xmlns="http://www.w3.org/2000/svg"
   xmlns:sodipodi="http://sodipodi.sourceforge.net/DTD/sodipodi-0.dtd"
   xmlns:inkscape="http://www.inkscape.org/namespaces/inkscape"
   width="248.87622mm"
   height="126.59682mm"
   viewBox="0 0 881.84488 448.57142"
   id="svg2"
   version="1.1"
   inkscape:version="0.91 r13725"
   sodipodi:docname="plotn2.svg">
  <sodipodi:namedview
     id="base"
     pagecolor="#ffffff"
     bordercolor="#666666"
     borderopacity="1.0"
     inkscape:pageopacity="0.0"
     inkscape:pageshadow="2"
     inkscape:zoom="0.35"
     inkscape:cx="569.28568"
     inkscape:cy="-16.428571"
     inkscape:document-units="px"
     inkscape:current-layer="layer1"
     showgrid="false"
     inkscape:window-width="1276"
     inkscape:window-height="755"
     inkscape:window-x="4"
     inkscape:window-y="0"
     inkscape:window-maximized="1"
     fit-margin-top="0"
     fit-margin-left="0"
     fit-margin-right="0"
     fit-margin-bottom="0" />
  <defs
     id="defs4">
    <marker
       inkscape:isstock="true"
       style="overflow:visible"
       id="Arrow2Mend"
       refX="0"
       refY="0"
       orient="auto"
       inkscape:stockid="Arrow2Mend">
      <path
         inkscape:connector-curvature="0"
         transform="scale(-0.6,-0.6)"
         d="M 8.7185878,4.0337352 -2.2072895,0.01601326 8.7185884,-4.0017078 c -1.7454984,2.3720609 -1.7354408,5.6174519 -6e-7,8.035443 z"
         style="fill:#000000;fill-opacity:1;fill-rule:evenodd;stroke:#000000;stroke-width:0.625;stroke-linejoin:round;stroke-opacity:1"
         id="path4171" />
    </marker>
    <marker
       inkscape:isstock="true"
       style="overflow:visible"
       id="marker4426"
       refX="0"
       refY="0"
       orient="auto"
       inkscape:stockid="Arrow1Mend">
      <path
         inkscape:connector-curvature="0"
         transform="matrix(-0.4,0,0,-0.4,-4,0)"
         style="fill:#000000;fill-opacity:1;fill-rule:evenodd;stroke:#000000;stroke-width:1pt;stroke-opacity:1"
         d="M 0,0 5,-5 -12.5,0 5,5 0,0 Z"
         id="path4428" />
    </marker>
    <marker
       inkscape:isstock="true"
       style="overflow:visible"
       id="Arrow1Mend"
       refX="0"
       refY="0"
       orient="auto"
       inkscape:stockid="Arrow1Mend">
      <path
         inkscape:connector-curvature="0"
         transform="matrix(-0.4,0,0,-0.4,-4,0)"
         style="fill:#000000;fill-opacity:1;fill-rule:evenodd;stroke:#000000;stroke-width:1pt;stroke-opacity:1"
         d="M 0,0 5,-5 -12.5,0 5,5 0,0 Z"
         id="path4153" />
    </marker>
  </defs>
  <metadata
     id="metadata7">
    <rdf:RDF>
      <cc:Work
         rdf:about="">
        <dc:format>image/svg+xml</dc:format>
        <dc:type
           rdf:resource="http://purl.org/dc/dcmitype/StillImage" />
        <dc:title />
      </cc:Work>
    </rdf:RDF>
  </metadata>
  <g
     transform="translate(1022.8571,161.20922)"
     id="layer1"
     inkscape:groupmode="layer"
     inkscape:label="Layer 1">
    <path
       inkscape:connector-curvature="0"
       id="path4138"
       d="m -1022.8571,206.64792 874.28567,0"
       style="fill:none;fill-rule:evenodd;stroke:#000000;stroke-width:5;stroke-linecap:butt;stroke-linejoin:miter;stroke-miterlimit:4;stroke-dasharray:none;stroke-opacity:1;marker-end:url(#Arrow2Mend)" />
    <circle
       r="11.428572"
       cy="60.933636"
       cx="-796"
       id="path4494"
       style="opacity:0.98000004;fill:none;fill-opacity:1;fill-rule:nonzero;stroke:#000000;stroke-width:5;stroke-linecap:butt;stroke-linejoin:miter;stroke-miterlimit:4;stroke-dasharray:none;stroke-dashoffset:0;stroke-opacity:1" />
    <circle
       r="11.4285"
       cy="61.219418"
       cx="-1002.0001"
       id="path4496"
       style="opacity:0.98000004;fill:none;fill-opacity:1;fill-rule:nonzero;stroke:#000000;stroke-width:5;stroke-linecap:butt;stroke-linejoin:miter;stroke-miterlimit:4;stroke-dasharray:none;stroke-dashoffset:0;stroke-opacity:1" />
    <circle
       r="11.4285"
       cy="60.64801"
       cx="-397.71429"
       id="path4498"
       style="opacity:0.98000004;fill:none;fill-opacity:1;fill-rule:nonzero;stroke:#000000;stroke-width:5;stroke-linecap:butt;stroke-linejoin:miter;stroke-miterlimit:4;stroke-dasharray:none;stroke-dashoffset:0;stroke-opacity:1" />
    <ellipse
       ry="11.4285"
       rx="11.428499"
       cy="61.219425"
       cx="-595.14288"
       id="path4500"
       style="opacity:0.98000004;fill:none;fill-opacity:1;fill-rule:nonzero;stroke:#000000;stroke-width:5;stroke-linecap:butt;stroke-linejoin:miter;stroke-miterlimit:4;stroke-dasharray:none;stroke-dashoffset:0;stroke-opacity:1" />
    <ellipse
       ry="44.285713"
       rx="74.285713"
       cy="-114.42351"
       cx="-933.21429"
       id="path4504"
       style="opacity:0.98000004;fill:none;fill-opacity:1;fill-rule:nonzero;stroke:#000000;stroke-width:5;stroke-linecap:butt;stroke-linejoin:miter;stroke-miterlimit:4;stroke-dasharray:none;stroke-dashoffset:0;stroke-opacity:1" />
    <g
       id="g4524"
       transform="matrix(0.98378054,0,0,0.97808555,-469.5462,-62.859822)">
      <g
         word-spacing="normal"
         letter-spacing="normal"
         font-size-adjust="none"
         font-stretch="normal"
         font-weight="normal"
         font-variant="normal"
         font-style="normal"
         stroke-miterlimit="10.433"
         xml:space="preserve"
         transform="matrix(1.0629921,0,0,-1.0629921,-186.02362,789.27165)"
         id="content"
         style="font-style:normal;font-variant:normal;font-weight:normal;font-stretch:normal;letter-spacing:normal;word-spacing:normal;text-anchor:start;fill:none;fill-opacity:1;fill-rule:evenodd;stroke:#000000;stroke-width:1.01944184;stroke-linecap:butt;stroke-linejoin:miter;stroke-miterlimit:10.43299961;stroke-dasharray:none;stroke-dashoffset:0;stroke-opacity:1"><path
           id="path4527"
           d="m 465.79,426.12 4.68,0 c 0.99,0 1.49,0 1.49,1 0,0.55 -0.5,0.55 -1.39,0.55 l -4.39,0 c 1.79,7.08 2.04,8.08 2.04,8.37 0,0.85 -0.59,1.35 -1.43,1.35 -0.16,0 -1.55,-0.05 -2,-1.8 l -1.94,-7.92 -4.69,0 c -1,0 -1.5,0 -1.5,-0.94 0,-0.61 0.41,-0.61 1.41,-0.61 l 4.37,0 c -3.58,-14.14 -3.78,-14.98 -3.78,-15.89 0,-2.69 1.89,-4.58 4.58,-4.58 5.08,0 7.92,7.27 7.92,7.67 0,0.5 -0.39,0.5 -0.59,0.5 -0.46,0 -0.5,-0.15 -0.75,-0.7 -2.14,-5.17 -4.78,-6.37 -6.47,-6.37 -1.05,0 -1.55,0.65 -1.55,2.29 0,1.19 0.09,1.55 0.3,2.39 z"
           inkscape:connector-curvature="0"
           style="fill:#000000;stroke-width:0" /></g>    </g>
    <g
       transform="matrix(1.0056505,0,0,1.0021906,-1246.1097,-454.49109)"
       id="g4569">
      <g
         style="font-style:normal;font-variant:normal;font-weight:normal;font-stretch:normal;letter-spacing:normal;word-spacing:normal;text-anchor:start;fill:none;fill-opacity:1;fill-rule:evenodd;stroke:#000000;stroke-width:0.99609631;stroke-linecap:butt;stroke-linejoin:miter;stroke-miterlimit:10.43299961;stroke-dasharray:none;stroke-dashoffset:0;stroke-opacity:1"
         id="g4571"
         transform="matrix(1.0629921,0,0,-1.0629921,-186.02362,789.27165)"
         xml:space="preserve"
         stroke-miterlimit="10.433"
         font-style="normal"
         font-variant="normal"
         font-weight="normal"
         font-stretch="normal"
         font-size-adjust="none"
         letter-spacing="normal"
         word-spacing="normal"><path
           style="fill:#000000;stroke-width:0"
           inkscape:connector-curvature="0"
           d="m 478.19,431.11 0,0.31 -0.01,0.34 -0.02,0.36 -0.02,0.37 -0.03,0.39 -0.04,0.39 -0.04,0.41 -0.06,0.41 -0.07,0.42 -0.07,0.43 -0.09,0.42 -0.1,0.43 -0.12,0.42 -0.12,0.42 -0.14,0.41 -0.16,0.41 -0.17,0.4 -0.18,0.38 -0.2,0.37 -0.22,0.36 -0.23,0.34 -0.25,0.32 -0.28,0.3 -0.29,0.27 -0.31,0.25 -0.16,0.12 -0.17,0.1 -0.17,0.1 -0.18,0.1 -0.18,0.08 -0.19,0.08 -0.19,0.07 -0.2,0.06 -0.21,0.05 -0.21,0.05 -0.22,0.03 -0.22,0.02 -0.23,0.02 -0.23,0 -0.05,-1.09 c 2.44,0 2.73,-3.19 2.73,-6.03 0,-2.44 -0.39,-4.99 -1.59,-9.92 l -10.41,0 c 0.85,3.2 1.85,7.18 3.83,10.72 1.36,2.43 3.19,5.23 5.44,5.23 l 0.05,1.09 c -6.92,0 -14.6,-14.04 -14.6,-25.45 0,-4.69 1.44,-10.22 5.99,-10.22 l 0,1.1 c -1.66,0 -2.71,1.45 -2.71,6.07 0,2.1 0.3,4.99 1.6,9.86 l 10.37,0 c -0.54,-2.28 -1.59,-6.51 -3.5,-10.11 -1.73,-3.39 -3.62,-5.82 -5.76,-5.82 l 0,-1.1 c 7.01,0 14.59,14.3 14.59,25.46 z"
           id="path4573" /></g>    </g>
    <circle
       r="11.428501"
       cy="62.219391"
       cx="-892.28571"
       id="path4202"
       style="opacity:0.98000004;fill:#ffffff;fill-opacity:1;fill-rule:nonzero;stroke:#000000;stroke-width:5;stroke-linecap:butt;stroke-linejoin:miter;stroke-miterlimit:4;stroke-dasharray:none;stroke-dashoffset:0;stroke-opacity:1" />
    <circle
       r="11.428501"
       cy="61.933636"
       cx="-700"
       id="path4204"
       style="opacity:0.98000004;fill:#ffffff;fill-opacity:1;fill-rule:nonzero;stroke:#000000;stroke-width:5;stroke-linecap:butt;stroke-linejoin:miter;stroke-miterlimit:4;stroke-dasharray:none;stroke-dashoffset:0;stroke-opacity:1" />
    <circle
       r="11.428501"
       cy="60.219345"
       cx="-492.28574"
       id="path4206"
       style="opacity:0.98000004;fill:#ffffff;fill-opacity:1;fill-rule:nonzero;stroke:#000000;stroke-width:5;stroke-linecap:butt;stroke-linejoin:miter;stroke-miterlimit:4;stroke-dasharray:none;stroke-dashoffset:0;stroke-opacity:1" />
    <g
       id="g4242"
       transform="matrix(0.99664374,0,0,1.0103767,-843.8038,-121.14482)">
      <g
         word-spacing="normal"
         letter-spacing="normal"
         font-size-adjust="none"
         font-stretch="normal"
         font-weight="normal"
         font-variant="normal"
         font-style="normal"
         stroke-miterlimit="10.433"
         xml:space="preserve"
         transform="matrix(0.6408163,0,0,-0.6408163,-112.14285,661.38366)"
         id="g4244"
         style="font-style:normal;font-variant:normal;font-weight:normal;font-stretch:normal;letter-spacing:normal;word-spacing:normal;text-anchor:start;fill:none;fill-opacity:1;fill-rule:evenodd;stroke:#000000;stroke-width:0.99652541;stroke-linecap:butt;stroke-linejoin:miter;stroke-miterlimit:10.43299961;stroke-dasharray:none;stroke-dashoffset:0;stroke-opacity:1"><path
           id="path4246"
           d="m 472.91,425.53 -6.37,1.54 c -3.1,0.75 -5.04,3.44 -5.04,6.33 0,3.49 2.69,6.53 6.58,6.53 8.31,0 9.41,-8.17 9.71,-10.42 0.04,-0.3 0.04,-0.59 0.6,-0.59 0.65,0 0.65,0.25 0.65,1.2 l 0,10 c 0,0.86 0,1.2 -0.55,1.2 -0.35,0 -0.41,-0.04 -0.75,-0.65 L 476,437.84 c -1.5,1.44 -3.54,3.48 -7.98,3.48 -5.53,0 -9.7,-4.39 -9.7,-9.67 0,-4.12 2.64,-7.76 6.51,-9.11 0.55,-0.2 3.1,-0.79 6.58,-1.64 1.34,-0.36 2.84,-0.7 4.23,-2.54 1.05,-1.3 1.55,-2.94 1.55,-4.58 0,-3.55 -2.48,-7.13 -6.67,-7.13 -1.45,0 -5.23,0.25 -7.88,2.69 -2.89,2.69 -3.04,5.87 -3.09,7.67 -0.05,0.5 -0.44,0.5 -0.59,0.5 -0.64,0 -0.64,-0.36 -0.64,-1.25 l 0,-9.97 c 0,-0.84 0,-1.18 0.54,-1.18 0.35,0 0.39,0.09 0.74,0.64 0,0.04 0.15,0.2 1.79,2.84 1.55,-1.69 4.74,-3.48 9.18,-3.48 5.82,0 9.81,4.87 9.81,10.35 0,4.99 -3.28,9.07 -7.47,10.07 z"
           inkscape:connector-curvature="0"
           style="fill:#000000;stroke-width:0" /><path
           id="path4248"
           d="m 491.86,426.12 7.13,0 0,1.55 -7.13,0 0,9.17 -1.25,0 c -0.04,-4.08 -1.54,-9.42 -6.42,-9.61 l 0,-1.11 4.24,0 0,-13.75 c 0,-6.12 4.62,-6.72 6.42,-6.72 3.53,0 4.94,3.53 4.94,6.72 l 0,2.84 -1.25,0 0,-2.73 c 0,-3.69 -1.5,-5.58 -3.35,-5.58 -3.33,0 -3.33,4.53 -3.33,5.38 z"
           inkscape:connector-curvature="0"
           style="fill:#000000;stroke-width:0" /><path
           id="path4250"
           d="m 508.09,417.71 0.04,1.05 c 0.3,7.42 4.49,8.66 6.19,8.66 5.13,0 5.63,-6.72 5.63,-8.66 l -11.82,0 -0.04,-1.05 13.9,0 c 1.1,0 1.24,0 1.24,1.05 0,4.92 -2.69,9.75 -8.91,9.75 -5.78,0 -10.37,-5.12 -10.37,-11.36 0,-6.67 5.23,-11.5 10.96,-11.5 6.08,0 8.32,5.53 8.32,6.47 0,0.5 -0.39,0.61 -0.64,0.61 -0.46,0 -0.55,-0.3 -0.66,-0.7 -1.73,-5.13 -6.22,-5.13 -6.72,-5.13 -2.5,0 -4.48,1.49 -5.62,3.33 -1.5,2.39 -1.5,5.69 -1.5,7.48 z"
           inkscape:connector-curvature="0"
           style="fill:#000000;stroke-width:0" /><path
           id="path4252"
           d="m 533.2,424.93 0,3.28 -7.18,-0.54 0,-1.55 c 3.55,0 3.89,-0.3 3.89,-2.48 l 0,-23.32 c 0,-2.25 -0.54,-2.25 -3.89,-2.25 l 0,-1.54 c 1.71,0.06 4.28,0.15 5.58,0.15 1.35,0 3.89,-0.09 5.64,-0.15 l 0,1.54 c -3.34,0 -3.89,0 -3.89,2.25 l 0,8.36 0,0.46 0.7,0.65 c -0.7,1.05 -0.7,1.1 -0.7,2.08 l 0,0 0,11.13 c 1.44,2.53 3.89,3.98 6.42,3.98 3.64,0 6.69,-4.39 6.69,-10.02 0,-6.03 -3.5,-10.21 -7.19,-10.21 -1.98,0 -3.87,1 -5.22,3.04 l -0.7,-0.65 c 0.25,-0.8 2.35,-3.49 6.13,-3.49 5.93,0 11.11,4.88 11.11,11.31 0,6.33 -4.83,11.25 -10.41,11.25 -3.89,0 -5.98,-2.18 -6.98,-3.28 z"
           inkscape:connector-curvature="0"
           style="fill:#000000;stroke-width:0" /><path
           id="path4254"
           d="m 575.36,410.04 5.28,5.13 c 7.77,6.87 10.77,9.56 10.77,14.54 0,5.69 -4.49,9.68 -10.57,9.68 -5.64,0 -9.32,-4.6 -9.32,-9.03 0,-2.79 2.5,-2.79 2.64,-2.79 0.86,0 2.59,0.6 2.59,2.64 0,1.3 -0.89,2.6 -2.64,2.6 -0.39,0 -0.5,0 -0.64,-0.05 1.14,3.24 3.83,5.08 6.72,5.08 4.53,0 6.69,-4.05 6.69,-8.13 0,-3.98 -2.5,-7.92 -5.24,-11.01 l -9.56,-10.66 c -0.56,-0.54 -0.56,-0.64 -0.56,-1.84 l 18.48,0 1.41,8.67 -1.25,0 c -0.25,-1.5 -0.6,-3.69 -1.1,-4.44 -0.36,-0.39 -3.64,-0.39 -4.73,-0.39 z"
           inkscape:connector-curvature="0"
           style="fill:#000000;stroke-width:0" /></g>    </g>
  </g>
</svg>
