<?xml version="1.0" encoding="UTF-8" standalone="no"?>
<!-- Created with Inkscape (http://www.inkscape.org/) -->

<svg
   xmlns:osb="http://www.openswatchbook.org/uri/2009/osb"
   xmlns:dc="http://purl.org/dc/elements/1.1/"
   xmlns:cc="http://creativecommons.org/ns#"
   xmlns:rdf="http://www.w3.org/1999/02/22-rdf-syntax-ns#"
   xmlns:svg="http://www.w3.org/2000/svg"
   xmlns="http://www.w3.org/2000/svg"
   xmlns:sodipodi="http://sodipodi.sourceforge.net/DTD/sodipodi-0.dtd"
   xmlns:inkscape="http://www.inkscape.org/namespaces/inkscape"
   width="248.87622mm"
   height="126.59682mm"
   viewBox="0 0 881.84488 448.57142"
   id="svg2"
   version="1.1"
   inkscape:version="0.91 r13725"
   sodipodi:docname="plotn4.svg">
  <sodipodi:namedview
     id="base"
     pagecolor="#ffffff"
     bordercolor="#666666"
     borderopacity="1.0"
     inkscape:pageopacity="0.0"
     inkscape:pageshadow="2"
     inkscape:zoom="0.35"
     inkscape:cx="-116.4286"
     inkscape:cy="12.752474"
     inkscape:document-units="px"
     inkscape:current-layer="layer1"
     showgrid="false"
     inkscape:window-width="1276"
     inkscape:window-height="755"
     inkscape:window-x="39"
     inkscape:window-y="190"
     inkscape:window-maximized="0"
     fit-margin-top="0"
     fit-margin-left="0"
     fit-margin-right="0"
     fit-margin-bottom="0" />
  <defs
     id="defs4">
    <linearGradient
       osb:paint="solid"
       id="linearGradient4488">
      <stop
         id="stop4490"
         offset="0"
         style="stop-color:#ffffff;stop-opacity:1;" />
    </linearGradient>
    <marker
       inkscape:isstock="true"
       style="overflow:visible"
       id="Arrow1Mstart"
       refX="0.0"
       refY="0.0"
       orient="auto"
       inkscape:stockid="Arrow1Mstart">
      <path
         transform="scale(0.4) translate(10,0)"
         style="fill-rule:evenodd;stroke:#000000;stroke-width:1pt;stroke-opacity:1;fill:#000000;fill-opacity:1"
         d="M 0.0,0.0 L 5.0,-5.0 L -12.5,0.0 L 5.0,5.0 L 0.0,0.0 z "
         id="path4234" />
    </marker>
    <marker
       inkscape:stockid="Arrow2Mend"
       orient="auto"
       refY="0"
       refX="0"
       id="Arrow2Mend"
       style="overflow:visible"
       inkscape:isstock="true">
      <path
         id="path4171"
         style="fill:#000000;fill-opacity:1;fill-rule:evenodd;stroke:#000000;stroke-width:0.625;stroke-linejoin:round;stroke-opacity:1"
         d="M 8.7185878,4.0337352 -2.2072895,0.01601326 8.7185884,-4.0017078 c -1.7454984,2.3720609 -1.7354408,5.6174519 -6e-7,8.035443 z"
         transform="scale(-0.6,-0.6)"
         inkscape:connector-curvature="0" />
    </marker>
    <marker
       inkscape:stockid="Arrow1Mend"
       orient="auto"
       refY="0"
       refX="0"
       id="marker4426"
       style="overflow:visible"
       inkscape:isstock="true">
      <path
         id="path4428"
         d="M 0,0 5,-5 -12.5,0 5,5 0,0 Z"
         style="fill:#000000;fill-opacity:1;fill-rule:evenodd;stroke:#000000;stroke-width:1pt;stroke-opacity:1"
         transform="matrix(-0.4,0,0,-0.4,-4,0)"
         inkscape:connector-curvature="0" />
    </marker>
    <marker
       inkscape:stockid="Arrow1Mend"
       orient="auto"
       refY="0"
       refX="0"
       id="Arrow1Mend"
       style="overflow:visible"
       inkscape:isstock="true">
      <path
         id="path4153"
         d="M 0,0 5,-5 -12.5,0 5,5 0,0 Z"
         style="fill:#000000;fill-opacity:1;fill-rule:evenodd;stroke:#000000;stroke-width:1pt;stroke-opacity:1"
         transform="matrix(-0.4,0,0,-0.4,-4,0)"
         inkscape:connector-curvature="0" />
    </marker>
  </defs>
  <metadata
     id="metadata7">
    <rdf:RDF>
      <cc:Work
         rdf:about="">
        <dc:format>image/svg+xml</dc:format>
        <dc:type
           rdf:resource="http://purl.org/dc/dcmitype/StillImage" />
        <dc:title />
      </cc:Work>
    </rdf:RDF>
  </metadata>
  <g
     inkscape:label="Layer 1"
     inkscape:groupmode="layer"
     id="layer1"
     transform="translate(1022.8571,161.20922)">
    <path
       style="fill:none;fill-rule:evenodd;stroke:#000000;stroke-width:5;stroke-linecap:butt;stroke-linejoin:miter;stroke-miterlimit:4;stroke-dasharray:none;stroke-opacity:1;marker-end:url(#Arrow2Mend)"
       d="m -1022.8571,206.64792 874.28567,0"
       id="path4138"
       inkscape:connector-curvature="0" />
    <circle
       style="opacity:0.98000004;fill:#000000;fill-opacity:1;fill-rule:nonzero;stroke:#000000;stroke-width:5;stroke-linecap:butt;stroke-linejoin:miter;stroke-miterlimit:4;stroke-dasharray:none;stroke-dashoffset:0;stroke-opacity:1"
       id="path4494"
       cx="-923.92853"
       cy="148.43361"
       r="11.428572" />
    <circle
       style="opacity:0.98000004;fill:#000000;fill-opacity:1;fill-rule:nonzero;stroke:#000000;stroke-width:5;stroke-linecap:butt;stroke-linejoin:miter;stroke-miterlimit:4;stroke-dasharray:none;stroke-dashoffset:0;stroke-opacity:1"
       id="path4496"
       cx="-1001.9286"
       cy="55.433678"
       r="11.4285" />
    <circle
       style="opacity:0.98000004;fill:#000000;fill-opacity:1;fill-rule:nonzero;stroke:#000000;stroke-width:5;stroke-linecap:butt;stroke-linejoin:miter;stroke-miterlimit:4;stroke-dasharray:none;stroke-dashoffset:0;stroke-opacity:1"
       id="path4498"
       cx="-488.92856"
       cy="148.43369"
       r="11.4285" />
    <ellipse
       style="opacity:0.98000004;fill:#000000;fill-opacity:1;fill-rule:nonzero;stroke:#000000;stroke-width:5;stroke-linecap:butt;stroke-linejoin:miter;stroke-miterlimit:4;stroke-dasharray:none;stroke-dashoffset:0;stroke-opacity:1"
       id="path4500"
       cx="-728.92859"
       cy="55.433678"
       rx="11.428499"
       ry="11.4285" />
    <ellipse
       style="opacity:0.98000004;fill:none;fill-opacity:1;fill-rule:nonzero;stroke:#000000;stroke-width:5;stroke-linecap:butt;stroke-linejoin:miter;stroke-miterlimit:4;stroke-dasharray:none;stroke-dashoffset:0;stroke-opacity:1"
       id="path4504"
       cx="-932.85712"
       cy="-107.63784"
       rx="47.500004"
       ry="47.5" />
    <g
       transform="matrix(0.98378054,0,0,0.97808555,-469.5462,-62.859822)"
       id="g4524">
      <g
         style="font-style:normal;font-variant:normal;font-weight:normal;font-stretch:normal;letter-spacing:normal;word-spacing:normal;text-anchor:start;fill:none;fill-opacity:1;fill-rule:evenodd;stroke:#000000;stroke-width:1.01944184;stroke-linecap:butt;stroke-linejoin:miter;stroke-miterlimit:10.43299961;stroke-dasharray:none;stroke-dashoffset:0;stroke-opacity:1"
         id="content"
         transform="matrix(1.0629921,0,0,-1.0629921,-186.02362,789.27165)"
         xml:space="preserve"
         stroke-miterlimit="10.433"
         font-style="normal"
         font-variant="normal"
         font-weight="normal"
         font-stretch="normal"
         font-size-adjust="none"
         letter-spacing="normal"
         word-spacing="normal"><path
           style="fill:#000000;stroke-width:0"
           inkscape:connector-curvature="0"
           d="m 465.79,426.12 4.68,0 c 0.99,0 1.49,0 1.49,1 0,0.55 -0.5,0.55 -1.39,0.55 l -4.39,0 c 1.79,7.08 2.04,8.08 2.04,8.37 0,0.85 -0.59,1.35 -1.43,1.35 -0.16,0 -1.55,-0.05 -2,-1.8 l -1.94,-7.92 -4.69,0 c -1,0 -1.5,0 -1.5,-0.94 0,-0.61 0.41,-0.61 1.41,-0.61 l 4.37,0 c -3.58,-14.14 -3.78,-14.98 -3.78,-15.89 0,-2.69 1.89,-4.58 4.58,-4.58 5.08,0 7.92,7.27 7.92,7.67 0,0.5 -0.39,0.5 -0.59,0.5 -0.46,0 -0.5,-0.15 -0.75,-0.7 -2.14,-5.17 -4.78,-6.37 -6.47,-6.37 -1.05,0 -1.55,0.65 -1.55,2.29 0,1.19 0.09,1.55 0.3,2.39 z"
           id="path4527" /></g>    </g>
    <g
       id="g6003"
       transform="matrix(1.3581458,0,0,1.3822694,-1218.8188,-654.08517)">
      <g
         word-spacing="normal"
         letter-spacing="normal"
         font-size-adjust="none"
         font-stretch="normal"
         font-weight="normal"
         font-variant="normal"
         font-style="normal"
         stroke-miterlimit="10.433"
         xml:space="preserve"
         transform="matrix(0.6408163,0,0,-0.6408163,-112.14285,661.38366)"
         id="g6005"
         style="font-style:normal;font-variant:normal;font-weight:normal;font-stretch:normal;letter-spacing:normal;word-spacing:normal;text-anchor:start;fill:none;fill-opacity:1;fill-rule:evenodd;stroke:#000000;stroke-width:0.72984469;stroke-linecap:butt;stroke-linejoin:miter;stroke-miterlimit:10.43299961;stroke-dasharray:none;stroke-dashoffset:0;stroke-opacity:1"><path
           id="path6007"
           d="m 478.19,431.11 0,0.31 -0.01,0.34 -0.02,0.36 -0.02,0.37 -0.03,0.39 -0.04,0.39 -0.04,0.41 -0.06,0.41 -0.07,0.42 -0.07,0.43 -0.09,0.42 -0.1,0.43 -0.12,0.42 -0.12,0.42 -0.14,0.41 -0.16,0.41 -0.17,0.4 -0.18,0.38 -0.2,0.37 -0.22,0.36 -0.23,0.34 -0.25,0.32 -0.28,0.3 -0.29,0.27 -0.31,0.25 -0.16,0.12 -0.17,0.1 -0.17,0.1 -0.18,0.1 -0.18,0.08 -0.19,0.08 -0.19,0.07 -0.2,0.06 -0.21,0.05 -0.21,0.05 -0.22,0.03 -0.22,0.02 -0.23,0.02 -0.23,0 -0.05,-1.09 c 2.44,0 2.73,-3.19 2.73,-6.03 0,-2.44 -0.39,-4.99 -1.59,-9.92 l -10.41,0 c 0.85,3.2 1.85,7.18 3.83,10.72 1.36,2.43 3.19,5.23 5.44,5.23 l 0.05,1.09 c -6.92,0 -14.6,-14.04 -14.6,-25.45 0,-4.69 1.44,-10.22 5.99,-10.22 l 0,1.1 c -1.66,0 -2.71,1.45 -2.71,6.07 0,2.1 0.3,4.99 1.6,9.86 l 10.37,0 c -0.54,-2.28 -1.59,-6.51 -3.5,-10.11 -1.73,-3.39 -3.62,-5.82 -5.76,-5.82 l 0,-1.1 c 7.01,0 14.59,14.3 14.59,25.46 z"
           inkscape:connector-curvature="0"
           style="fill:#000000;stroke-width:0" /><path
           id="path6009"
           d="m 483.17,400.95 -0.01,-0.04 -0.02,-0.05 -0.01,-0.04 -0.01,-0.05 -0.02,-0.05 -0.01,-0.06 -0.02,-0.05 -0.01,-0.05 -0.03,-0.11 -0.03,-0.11 -0.03,-0.12 -0.02,-0.1 -0.02,-0.06 -0.01,-0.05 -0.01,-0.05 -0.01,-0.05 -0.01,-0.05 -0.01,-0.04 -0.01,-0.05 -0.01,-0.04 -0.01,-0.03 0,-0.04 -0.01,-0.03 0,-0.03 -0.01,-0.02 0,-0.02 0,-0.01 0,-0.01 0,-0.01 0,0 c 0,-0.77 0.62,-1.11 1.19,-1.11 0.62,0 1.17,0.45 1.36,0.76 0.17,0.32 0.45,1.43 0.62,2.16 0.17,0.66 0.55,2.27 0.77,3.14 0.2,0.77 0.42,1.53 0.59,2.33 0.37,1.44 0.45,1.7 1.45,3.14 0.99,1.39 2.63,3.2 5.24,3.2 2.01,0 2.04,-1.78 2.04,-2.44 0,-2.09 -1.48,-5.95 -2.04,-7.42 -0.39,-0.98 -0.53,-1.29 -0.53,-1.89 0,-1.84 1.54,-2.98 3.31,-2.98 3.48,0 5.01,4.79 5.01,5.33 0,0.45 -0.45,0.45 -0.54,0.45 -0.5,0 -0.53,-0.2 -0.68,-0.59 -0.79,-2.79 -2.29,-4.22 -3.68,-4.22 -0.74,0 -0.88,0.48 -0.88,1.22 0,0.79 0.17,1.25 0.8,2.82 0.42,1.08 1.86,4.77 1.86,6.72 0,3.39 -2.69,3.97 -4.53,3.97 -2.89,0 -4.85,-1.76 -5.89,-3.16 -0.25,2.4 -2.3,3.16 -3.74,3.16 -1.5,0 -2.29,-1.08 -2.75,-1.87 -0.76,-1.29 -1.25,-3.29 -1.25,-3.46 0,-0.45 0.49,-0.45 0.6,-0.45 0.48,0 0.51,0.11 0.76,1.05 0.52,2.06 1.19,3.76 2.55,3.76 0.91,0 1.14,-0.76 1.14,-1.7 0,-0.67 -0.31,-1.95 -0.56,-2.89 -0.24,-0.95 -0.58,-2.38 -0.77,-3.14 z"
           inkscape:connector-curvature="0"
           style="fill:#000000;stroke-width:0" /><path
           id="path6011"
           d="m 511.33,406.7 0.1,0 0.1,0 0.12,0 0.12,0 0.14,0.01 0.14,0 0.15,0.01 0.15,0 0.16,0.01 0.17,0.01 0.18,0.01 0.17,0.01 0.19,0.01 0.19,0.02 0.38,0.03 0.4,0.04 0.4,0.05 0.41,0.06 0.4,0.07 0.4,0.08 0.2,0.05 0.2,0.04 0.19,0.05 0.19,0.06 0.18,0.05 0.18,0.06 c 2.58,0.91 3.06,2.58 3.06,3.63 0,1.92 -1.92,3.06 -4.32,3.06 l 0,-0.97 c 1.53,0 2.82,-0.76 2.82,-2.09 0,-3.38 -5.89,-3.38 -7.39,-3.38 l -1.7,0 c 1.42,5.05 5.3,5.47 6.27,5.47 l 0,0.97 c -4.18,0 -9.83,-3.2 -9.83,-9.16 0,-3.51 2.2,-6.54 6.28,-6.54 5.89,0 8.64,3.44 8.64,3.94 0,0.2 -0.31,0.59 -0.59,0.59 -0.21,0 -0.28,-0.08 -0.57,-0.36 -2.71,-3.2 -6.79,-3.2 -7.42,-3.2 -2.09,0 -3.48,1.39 -3.48,4.22 0,0.48 0,1.18 0.42,3.09 z"
           inkscape:connector-curvature="0"
           style="fill:#000000;stroke-width:0" /><path
           id="path6013"
           d="m 540.69,409.87 0.02,0.09 0.03,0.1 0.02,0.1 0.03,0.1 0.02,0.1 0.03,0.11 0.06,0.22 0.05,0.22 0.06,0.22 0.05,0.22 0.02,0.11 0.03,0.1 0.02,0.11 0.03,0.1 0.02,0.09 0.02,0.1 0.02,0.09 0.02,0.09 0.02,0.08 0.02,0.07 0.01,0.07 0.01,0.07 0.02,0.06 0.01,0.05 0,0.04 0.01,0.04 0,0.01 0,0.02 0,0.01 0,0.01 c 0,0.69 -0.54,1.11 -1.14,1.11 -0.67,0 -1.29,-0.42 -1.5,-1.02 -0.11,-0.26 -0.45,-1.73 -0.7,-2.61 -0.48,-1.98 -0.48,-2.04 -1,-4 -0.45,-1.92 -0.53,-2.2 -0.56,-3.2 0.14,-0.7 -0.14,-1.36 -0.99,-2.41 -0.43,-0.56 -1.14,-1.15 -2.33,-1.15 -1.35,0 -3.14,0.48 -3.14,3.2 0,1.78 0.99,4.36 1.68,6.14 0.59,1.53 0.73,1.84 0.73,2.44 0,1.67 -1.42,2.95 -3.31,2.95 -3.52,0 -5.08,-4.73 -5.08,-5.33 0,-0.45 0.48,-0.45 0.59,-0.45 0.49,0 0.52,0.17 0.63,0.56 0.87,2.89 2.37,4.25 3.76,4.25 0.6,0 0.86,-0.39 0.86,-1.22 0,-0.79 -0.31,-1.56 -0.48,-2.01 -1.98,-5.1 -1.98,-5.8 -1.98,-6.88 0,-4.11 3.73,-4.62 5.6,-4.62 0.68,0 2.38,0 3.94,2.33 0.8,-1.57 2.72,-2.33 4.85,-2.33 3.11,0 4.64,2.67 5.32,4.11 1.5,2.92 2.44,7.28 2.44,8.89 0,2.61 -1.48,2.75 -1.73,2.75 -0.91,0 -1.88,-0.96 -1.88,-1.86 0,-0.58 0.35,-0.86 0.58,-1.08 0.84,-0.69 1.3,-1.67 1.3,-2.78 0,-0.45 -1.47,-9.06 -5.89,-9.06 -2.83,0 -2.83,2.51 -2.83,3.11 0,0.93 0.14,1.5 0.64,3.48 z"
           inkscape:connector-curvature="0"
           style="fill:#000000;stroke-width:0" /></g>    </g>
    <path
       style="fill:none;fill-rule:evenodd;stroke:#000000;stroke-width:5.0000003;stroke-linecap:butt;stroke-linejoin:miter;stroke-opacity:1;stroke-miterlimit:4;stroke-dasharray:none"
       d="m -1002.8571,53.07644 77.14286,0 0,94.28572 194.28571,0 0,-94.28572 242.85714,0 0,94.28572 240,0"
       id="path4193"
       inkscape:connector-curvature="0" />
    <circle
       style="opacity:0.98000004;fill:#ffffff;fill-opacity:1;fill-rule:nonzero;stroke:#000000;stroke-width:5;stroke-linecap:butt;stroke-linejoin:miter;stroke-miterlimit:4;stroke-dasharray:none;stroke-dashoffset:0;stroke-opacity:1"
       id="path4195"
       cx="-683.92859"
       cy="55.433678"
       r="11.428501" />
    <circle
       style="opacity:0.98000004;fill:#ffffff;fill-opacity:1;fill-rule:nonzero;stroke:#000000;stroke-width:4.99999952;stroke-linecap:butt;stroke-linejoin:miter;stroke-miterlimit:4;stroke-dasharray:none;stroke-dashoffset:0;stroke-opacity:1"
       id="path4197"
       cx="-798.92859"
       cy="148.43369"
       r="11.428501" />
    <circle
       style="opacity:0.98000004;fill:#ffffff;fill-opacity:1;fill-rule:nonzero;stroke:#000000;stroke-width:5;stroke-linecap:butt;stroke-linejoin:miter;stroke-miterlimit:4;stroke-dasharray:none;stroke-dashoffset:0;stroke-opacity:1"
       id="path4199"
       cx="-398.92856"
       cy="148.43369"
       r="11.428501" />
    <flowRoot
       xml:space="preserve"
       id="flowRoot4193"
       style="font-style:normal;font-weight:normal;font-size:50.00000381px;line-height:125%;font-family:sans-serif;letter-spacing:0px;word-spacing:0px;fill:#000000;fill-opacity:1;stroke:none;stroke-width:1px;stroke-linecap:butt;stroke-linejoin:miter;stroke-opacity:1"
       transform="translate(373.2855,183.81672)"><flowRegion
         id="flowRegion4195"><rect
           id="rect4197"
           width="302.85715"
           height="331.42856"
           x="-980"
           y="39.999969"
           style="font-size:50.00000381px" /></flowRegion><flowPara
         id="flowPara4199">5</flowPara></flowRoot>  </g>
</svg>
